<?xml version="1.0" encoding="utf-8"?>
<!-- Generator: Adobe Illustrator 23.0.3, SVG Export Plug-In . SVG Version: 6.00 Build 0)  -->
<svg version="1.1" id="Layer_1" xmlns="http://www.w3.org/2000/svg" xmlns:xlink="http://www.w3.org/1999/xlink" x="0px" y="0px"
	 viewBox="0 0 311.21 61.96" style="enable-background:new 0 0 311.21 61.96;" xml:space="preserve">
<style type="text/css">
	.st0{fill:#888A8C;}
</style>
<g>
	<path class="st0" d="M34.68,60.74l0-7.48h-0.26c-4.2,5.56-8.48,8.71-17.93,8.71C7.44,61.96,0,58.05,0,49.45
		C0,37.41,13.44,37,26.43,35.67c4.96-0.5,7.72-1.07,7.72-5.79c0-7.06-5.82-8.81-12.88-8.81c-7.44,0-12.97,2.98-13.16,10.3H2.09
		c0.57-10.38,8.68-14.7,19.94-14.7c8.68,0,18.13,2.32,18.13,13.77v30.3H34.68z M34.16,37.33h-0.2c-0.77,1.23-3.44,1.66-5.05,1.91
		C18.69,40.82,6,40.73,6,49.12c0,5.22,5.35,8.45,10.97,8.45c9.16,0,17.27-5.06,17.19-13.43V37.33z"/>
	<path class="st0" d="M46.77,17.93h5.52v7.21h0.29c3.14-5.13,8.32-8.46,16.11-8.46c6.48,0,12.29,2.74,14.14,8.38
		c2.95-5.64,9.14-8.38,15.64-8.38c10.78,0,16.31,4.9,16.31,15v29.05h-6.01v-28.8c0-7.03-3.05-10.86-11.66-10.86
		c-10.38,0-13.35,7.45-13.35,15.43v24.23h-6.02V31.68c0.1-5.79-2.66-10.61-10.29-10.61c-10.41,0-14.58,6.81-14.67,15.75v23.91h-6.01
		V17.93z"/>
	<path class="st0" d="M165.89,60.73h-5.67v-8.13h-0.19c-2.63,5.54-10.69,9.36-17.98,9.36c-15.39,0-22.73-10.54-22.73-22.63
		c0-12.13,7.33-22.66,22.73-22.66c7.5,0,14.86,3.24,17.48,9.38h0.21V0h6.16V60.73z M142.04,57.57c13.12,0,17.69-9.38,17.69-18.24
		c0-8.89-4.57-18.26-17.69-18.26c-11.79,0-16.55,9.38-16.55,18.26C125.49,48.19,130.25,57.57,142.04,57.57z"/>
	<path class="st0" d="M218.35,39.33c0,12.26-8.4,22.63-23.87,22.63c-15.47,0-23.88-10.37-23.88-22.63c0-12.3,8.41-22.66,23.88-22.66
		C209.95,16.68,218.35,27.04,218.35,39.33z M176.77,39.33c0,9.11,5.85,18.24,17.71,18.24c11.85,0,17.7-9.13,17.7-18.24
		c0-9.14-5.86-18.26-17.7-18.26C182.63,21.07,176.77,30.19,176.77,39.33z"/>
	<path class="st0" d="M260.24,31.36c-1.64-6.38-6.26-10.29-14.27-10.29c-11.87,0-17.73,9.12-17.73,18.26
		c0,9.11,5.86,18.24,17.73,18.24c7.62,0,13.89-5.06,14.66-12.2h6.18c-1.66,10.29-9.6,16.59-20.83,16.59
		c-15.47,0-23.9-10.37-23.9-22.63c0-12.3,8.43-22.66,23.9-22.66c10.75,0,19.08,4.9,20.45,14.69H260.24z"/>
	<path class="st0" d="M303.9,31.34c-0.3-6.46-6.8-10.27-13.85-10.27c-5.47,0-11.93,1.83-11.93,7.37c0,4.67,6.26,6.33,10.47,7.23
		l8.21,1.58c7.05,0.9,14.41,4.38,14.41,11.87c0,9.29-10.88,12.85-20.27,12.85c-10.26,0-17.68-3.54-20.05-11.39
		c-0.36-1.13-0.8-3.88-0.92-5.2h6.18c0.08,1.25,0.54,3.89,0.97,4.93c1.98,4.79,7.34,7.27,14.11,7.27c5.77,0,13.81-2.16,13.81-8.12
		c0-4.98-5.5-6.64-11.06-7.82l-7.93-1.49c-8.02-1.82-14.08-4.13-14.08-11.44c0-8.69,10.08-12.02,18.98-12.02
		c10.09,0,18.73,5.37,19.11,14.66H303.9z"/>
</g>
</svg>
