<svg width="2280" height="1022" viewBox="0 0 2280 1022" fill="none" xmlns="http://www.w3.org/2000/svg">
<path fill-rule="evenodd" clip-rule="evenodd" d="M1500.08 827.735C1519.91 825.53 1535.32 825.53 1555.15 812.314C1566.15 801.289 1577.16 794.714 1592.59 781.484C1630.04 752.86 1685.08 741.836 1711.53 816.723C1726.93 856.372 1733.54 951.051 1735.74 984.085C1735.74 988.495 1737.95 988.495 1737.95 984.085C1740.15 935.656 1733.54 873.972 1735.74 858.564C1737.95 812.314 1799.6 63.5172 1801.81 21.6768C1804.01 -6.96046 1843.66 -6.96046 1848.06 21.6768C1852.47 74.5415 1927.34 711.007 1933.96 761.68C1933.96 777.088 1944.96 777.088 1955.97 766.063C1975.77 744.054 1986.8 728.62 2019.83 697.791C2055.07 666.961 2118.96 673.576 2145.38 717.621C2174 766.05 2180.62 781.484 2193.81 805.699C2204.83 823.325 2215.84 827.735 2240.06 827.735H2279.71V867.383H2231.25C2196.01 867.383 2180.62 860.769 2167.39 836.528C2158.57 821.12 2132.15 772.665 2116.73 744.041C2107.93 730.812 2079.31 722.031 2055.07 746.246C2028.65 774.87 2022.04 785.894 1986.8 821.12C1953.76 854.154 1907.51 845.335 1898.69 785.881C1889.9 711.007 1845.85 296.96 1837.03 239.698C1828.21 178.027 1828.21 96.5512 1828.21 41.4946C1826.01 37.0849 1821.63 37.0848 1821.63 43.6865C1821.63 105.345 1823.81 193.448 1819.42 241.903C1815.01 290.345 1766.56 937.848 1757.74 999.506C1755.53 1030.34 1724.7 1028.13 1713.69 999.506C1691.68 944.437 1656.44 834.349 1656.44 834.349C1649.83 810.109 1636.64 796.905 1610.19 816.723C1596.99 827.748 1590.39 832.144 1570.54 849.757C1548.54 865.178 1522.12 867.383 1502.27 867.383H0.282227V827.735H1500.08Z" fill="#57AAE2"/>
<path fill-rule="evenodd" clip-rule="evenodd" d="M0.294922 693.368C50.9548 691.163 55.3516 688.958 55.3516 651.54V292.563C55.3516 255.12 50.9548 252.915 0.294922 248.518V224.29H207.305C257.965 224.29 299.806 230.905 328.443 250.723C354.862 270.541 370.283 299.178 370.283 341.018C370.283 398.28 337.249 437.928 273.386 451.145V453.336C335.045 462.156 390.114 501.791 390.114 581.063C390.114 625.108 376.898 658.142 350.466 682.383C321.828 704.392 277.783 717.621 213.92 717.621H0.294922V693.368ZM145.647 638.324C145.647 677.973 158.863 688.958 198.512 688.958C246.954 688.958 290.999 664.744 290.999 585.459C290.999 519.391 255.773 470.936 183.091 470.936H145.647V638.324ZM180.886 440.12C246.954 440.12 277.783 404.881 277.783 347.62C277.783 285.949 244.749 255.12 189.692 255.12C154.454 255.12 145.647 257.324 145.647 283.757V440.12H180.886V440.12ZM808.545 548.016C808.545 594.266 799.738 629.505 786.522 653.719C755.693 708.789 707.238 728.594 625.749 730.799C548.657 730.799 498.01 708.789 469.372 653.719C456.156 629.505 447.35 589.856 447.35 548.016V292.563C447.35 252.915 447.35 252.915 398.895 248.518V224.29H588.292V248.518C539.837 252.915 537.632 252.915 537.632 292.563V550.234C537.632 620.711 546.452 699.995 627.928 699.995C711.622 697.791 718.223 622.916 718.223 550.234V292.563C718.223 252.915 713.827 252.915 667.563 248.518V224.29H856.974V248.518C810.724 252.915 808.519 252.915 808.519 292.563V548.016H808.545ZM870.216 693.368C920.876 691.163 925.273 688.958 925.273 651.54V292.563C925.273 255.12 920.876 252.915 870.216 248.518V224.29H1064.02C1114.68 224.29 1158.74 230.905 1191.78 252.928C1222.6 272.745 1246.82 312.394 1246.82 369.656C1246.82 433.519 1213.79 473.154 1176.34 495.19C1145.51 510.598 1103.66 519.417 1053.01 519.417H1015.58V651.566C1015.58 688.984 1019.98 691.189 1081.65 693.394V717.634H870.216V693.368V693.368ZM1015.57 459.938C1015.57 486.357 1024.37 490.767 1055.2 490.767C1119.08 490.767 1149.91 437.915 1149.91 371.847C1149.91 290.358 1110.26 255.12 1059.61 255.12C1022.17 255.12 1015.57 261.721 1015.57 281.552V459.938ZM1156.52 693.368C1193.97 691.163 1200.56 686.753 1211.57 651.54C1226.99 600.88 1345.92 224.277 1345.92 224.277H1422.97L1557.33 655.924C1568.33 688.958 1574.93 693.368 1610.17 693.368V719.813H1420.76V693.368L1456 691.163C1471.42 688.958 1473.62 680.165 1469.22 662.539L1433.99 548.016H1288.66C1275.43 596.471 1264.44 620.698 1253.42 660.334C1249.01 677.96 1257.83 688.958 1273.25 691.163L1306.29 693.368V717.608H1156.52V693.368ZM1422.99 517.187L1363.53 318.983H1359.12C1359.12 318.983 1306.29 490.767 1299.67 517.187H1422.99V517.187Z" fill="#57AAE2"/>
</svg>
