<?xml version="1.0" encoding="utf-8"?>
<!-- Generator: Adobe Illustrator 23.0.3, SVG Export Plug-In . SVG Version: 6.00 Build 0)  -->
<svg version="1.1" id="Layer_1" xmlns="http://www.w3.org/2000/svg" xmlns:xlink="http://www.w3.org/1999/xlink" x="0px" y="0px"
	 viewBox="0 0 1155.71 656.7" style="enable-background:new 0 0 1155.71 656.7;" xml:space="preserve">
<style type="text/css">
	.st0{fill:none;stroke:#143D8C;stroke-width:4;stroke-miterlimit:10;}
	.st1{fill:#143D8C;}
	.st2{fill:#FFFFFF;}
</style>
<path class="st0" d="M577.59,654.63c-49.72,0.57-99.21-2.23-148.35-10.27c-61.4-10.05-121.41-25.24-179.41-47.94
	c-50.12-19.61-97.64-44-140.17-77.35C76,492.69,47.23,461.95,27.33,423.75C10.29,391.05,0.11,356.5,2.29,319.21
	c2.01-34.39,13.14-66.06,30.41-95.64c22.85-39.12,54.51-70.01,91.02-96.2c48.4-34.73,101.91-59.26,158.06-78.43
	c54.81-18.71,111.02-31.44,168.33-39.4c59.47-8.25,119.27-8.52,179.1-6.43c73.1,2.55,144.55,15.43,214.56,36.28
	c63.59,18.94,124.33,44.34,179.42,81.93c40.06,27.34,74.8,59.98,99.65,102.18c16.08,27.3,26.57,56.66,29.97,88.16
	c3.14,29.14-2.11,57.35-12.34,84.71c-17.58,47.02-48.18,84.38-86.34,116.04c-42.82,35.53-91.4,61.09-142.73,81.81
	c-40.64,16.4-82.49,28.97-125.2,38.58c-60.76,13.68-122.21,21.94-184.63,21.83C593.58,654.62,585.58,654.63,577.59,654.63z"/>
<path class="st1" d="M1127.85,310.99c-3.67-29.12-13.94-56.05-29.35-81c-22.38-36.23-52.77-64.62-87.56-88.53
	c-54.58-37.52-114.99-62.37-178.26-80.65c-74.24-21.45-149.86-33.96-227.31-34.72c-53.85-0.53-107.58,0.01-161.01,8
	C374.66,44.5,306.77,61.5,241.59,88.54c-48.37,20.07-93.89,45.06-133.48,79.83c-30.7,26.96-55.52,58.29-70.44,96.76
	c-10.71,27.61-15.91,56.01-11,85.6c7.71,46.44,30.14,85.25,62.45,118.72c38.65,40.04,85.43,68.08,135.69,90.78
	c44.38,20.04,90.58,34.71,137.86,46.13c32.06,7.74,64.48,13.53,97.16,17.74c38.72,4.99,77.65,6.65,119.72,6.07
	c62.37,1.47,126.98-5.42,190.88-19.13c47.55-10.2,94.06-23.93,139.07-42.51c47.62-19.66,92.57-43.9,132.01-77.47
	c32.3-27.48,58.47-59.62,74.19-99.46C1125.94,365.68,1131.36,338.87,1127.85,310.99z"/>
<g>
	<path class="st2" d="M339.13,356.27c2.15-0.47,2.49-2.54,3.39-4.01c14.91-24.43,29.89-48.81,44.54-73.39
		c5.14-8.62,12.22-12.66,22.16-12.48c10.99,0.2,22,0.34,32.99-0.04c11.31-0.39,19.12,4.01,24.93,13.92
		c18.43,31.42,37.37,62.55,56.16,93.77c0.79,1.32,1.15,3.09,3.46,3.96c0-1.86,0-3.45,0-5.04c0-33.82,0.07-67.65-0.1-101.47
		c-0.02-4.07,0.85-5.32,5.13-5.26c18.49,0.26,36.99,0.2,55.48,0.04c3.48-0.03,4.86,0.48,4.85,4.5
		c-0.17,39.82-0.16,79.64-0.01,119.46c0.01,3.75-0.96,4.75-4.7,4.74c-38.15-0.13-76.31-0.13-114.46,0
		c-3.36,0.01-4.96-1.09-6.37-4.06c-9.85-20.9-19.92-41.7-29.87-62.56c-2.01-4.21-4.21-7.97-9.63-8.16c-5.6-0.2-8.24,3.34-10.51,7.71
		c-10.9,20.94-21.94,41.82-32.8,62.78c-1.53,2.96-3.19,4.35-6.81,4.31c-18.49-0.22-36.99-0.1-55.48-0.1c-1.29,0-2.58,0-4.82,0
		c4.64-7.64,8.86-14.5,12.98-21.43c1.09-1.83,2.67-3.46,2.74-5.79C333.88,363.42,335.85,359.46,339.13,356.27z"/>
	<path class="st2" d="M805.04,286.1c0.32-10.75,8.39-19.33,19.29-19.63c12.99-0.36,25.99-0.22,38.98-0.04
		c6.8,0.09,11.8,3.93,16.16,8.81c15.89,17.75,31.81,35.47,47.73,53.2c1.88,2.09,3.77,4.17,5.66,6.26c1.72-1.12,0.95-2.58,0.96-3.73
		c0.06-19.99,0.14-39.99-0.04-59.98c-0.03-3.64,0.73-4.8,4.61-4.75c17.49,0.23,34.99,0.18,52.48,0.03c3.23-0.03,4.64,0.41,4.63,4.21
		c-0.16,34.32-0.03,68.64-0.13,102.97c-0.03,12.3-7.16,20.34-19.37,21c-11.96,0.65-23.98,0.46-35.96,0.25
		c-6.27-0.11-11.3-3.21-15.58-7.87c-18.13-19.77-36.39-39.41-54.59-59.11c-0.87-0.95-1.6-2.03-2.39-3.05
		c-0.39,0.19-0.78,0.38-1.17,0.57c0,1.57,0,3.14,0,4.7c0,19.66,0.01,39.32-0.02,58.98c0,1.8,0.46,3.67-0.48,5.39
		c-1.55,0.9-3.25,0.46-4.88,0.47c-16.94,0.04-33.89,0.04-50.83,0c-1.62,0-3.33,0.48-4.86-0.51l-0.07-0.06
		c-0.8-1.02-0.53-2.23-0.53-3.37c-0.01-33.93-0.01-67.87-0.01-101.8C804.63,288.04,804.49,287.02,805.04,286.1z"/>
	<path class="st2" d="M766.7,335.03c4.06,1.68,7.18,2.74,10.08,4.21c12.06,6.11,18.77,15.99,20.43,29.39
		c1.08,8.7,1.29,17.61,6.04,25.4c-1.41,1.44-3,0.83-4.4,0.83c-18.49,0.05-36.99-0.09-55.48,0.14c-3.73,0.05-5.29-1.31-6.39-4.58
		c-2.09-6.2-2.93-12.61-3.96-19.01c-2.26-14.08-9.2-20.39-23.43-21.07c-6.15-0.29-12.32-0.2-18.49-0.27
		c-4.93-0.06-9.61-1.02-13.66-4.02c-7.41-5.49-7.4-14.19,0.04-19.68c4.2-3.1,9.07-3.9,14.16-4c8.81-0.17,17.66,0.61,26.43-0.95
		c3.14-0.56,6.16-1.39,8.94-2.96c3.46-1.96,5.32-4.83,5.3-8.94c-0.02-4.19-2.23-6.88-5.69-8.68c-4.36-2.26-9.18-3.19-13.98-3.32
		c-13.49-0.36-26.98-0.28-40.47-0.6c-4.04-0.1-3.08,2.5-3.08,4.63c-0.03,29.16-0.14,58.31,0.11,87.47c0.04,4.82-1.12,6.08-5.97,5.99
		c-18.15-0.32-36.32-0.23-54.48-0.04c-3.76,0.04-4.69-1-4.68-4.74c0.14-39.82,0.13-79.64,0.02-119.46
		c-0.01-3.33,0.61-4.54,4.28-4.52c41.48,0.16,82.97,0.03,124.45,0.23c14.23,0.07,28.17,2.36,41.42,7.91
		c4.94,2.07,9.51,4.76,13.57,8.29c11.98,10.39,13.16,26.65,2.83,38.72C784.57,328.51,776.57,332.34,766.7,335.03z"/>
	<path class="st2" d="M339.13,356.27c-1.67,4.14-3.63,8.11-6.74,11.41c-20.68,21.01-47.02,27.85-75.2,29.66
		c-25.65,1.64-50.91-0.51-75.08-10.05c-12.37-4.89-23.57-11.71-32.2-22.06c-21.06-25.24-16.04-60.16,11.38-80.09
		c15.04-10.93,32.18-16.49,50.28-19.27c28.79-4.43,57.43-3.92,85.52,4.61c13.6,4.13,25.75,10.84,34.41,22.66
		c3.88,5.3,6.38,11.2,8.13,17.53c0.87,3.16-0.09,3.62-2.93,3.61c-16.66-0.09-33.31-0.05-49.97-0.05c-4.19,0-8.28-1.08-10.79-4.33
		c-11.63-15.05-27.52-16.05-44.28-13.52c-12.64,1.91-22.41,8.25-27.02,20.83c-8.73,23.85,5.37,45.99,30.56,48.18
		c7.01,0.61,13.96,0.6,20.84-1.07c7.24-1.75,13.23-5.39,17.21-11.84c3.59-5.82,8.87-8.16,15.54-8.13
		c15.99,0.07,31.98,0.21,47.97-0.1c4.62-0.09,4.97,1.81,4.14,5.27C340.35,351.79,339.72,354.02,339.13,356.27z"/>
</g>
</svg>
