<svg width="601" height="130" viewBox="0 0 601 130" fill="none" xmlns="http://www.w3.org/2000/svg">
<path fill-rule="evenodd" clip-rule="evenodd" d="M0.299805 12.1V90.5C0.299805 95.4 4.39981 101.8 9.09981 101.8H91.1998C98.4998 101.8 100.6 92.1 100.6 85.5V17.2C100.6 13.3 99.9998 8.80002 98.4998 6.20002C96.7998 3.30002 94.2998 1.00001 89.9998 1.00001H10.2998C4.0998 0.800006 0.299805 7.10001 0.299805 12.1Z" fill="#F3702E"/>
<path fill-rule="evenodd" clip-rule="evenodd" d="M322.4 67.8V80.5001C319.9 87.0001 308.7 94.8001 300.8 88.2001C298.6 86.4001 298.2 84.5001 297.9 81.7001C297.6 79.2001 298 77.2001 299.8 74.6001C304.5 67.8001 311 67.6 322.4 67.8ZM243.1 42.5001C251.5 42.5001 258.4 49.7001 258.4 58.6001C258.4 58.9001 258.4 59.1 258.4 59.3H227.9C227.9 59.1 227.9 58.8001 227.9 58.6001C227.8 49.7001 234.6 42.5001 243.1 42.5001ZM564.7 43.9001C574.5 43.9001 582.4 54.2 582.4 66.8C582.4 79.5 574.5 89.7001 564.7 89.7001C557.4 89.7001 551.1 83.9001 548.4 75.7001V57.7001C551.1 49.7001 557.4 43.9001 564.7 43.9001ZM497.4 11.5001V15.3C497.4 23.8 516.8 28.2001 516.8 12.2001C516.8 4.50007 505.4 1.40005 500.3 6.40005C498.9 7.70005 497.4 8.90006 497.4 11.5001ZM498.1 101.7H515.7V32.1001H498.1V101.7ZM466.7 44.7001C466.7 41.2001 466.2 40.6 466.1 37.8C465.9 31.1 468.8 32.2001 452.3 32.2001C449.1 32.2001 451 35.4001 451 38.5001V101.8C473.2 101.8 469.2 105.5 469.2 86.8C469.2 78.9 468 61.0001 471.3 55.1001C475.9 46.9001 482.8 48.0001 489.9 48.0001V31.1001C471.1 30.9001 470.8 40.0001 466.7 44.7001ZM369.5 45.3C369.5 40 368.9 37.3001 368.9 32.1001C350 32.1001 353.8 31.5001 353.8 34.6001V101.7H372V63.5001C372 55.5001 377.9 47.8 385.8 47.8H393.3V32.7001C393.3 28.2001 380.1 32.0001 376.5 35.4001C374 37.7001 372.5 39.3001 370.9 42.4001L369.5 45.3ZM181.5 101.7H199V0.800049H181.4V101.7H181.5ZM149.5 103C167.3 103 166.3 100.3 172.1 99.9001C171.1 95.7001 170.6 91.0001 169.6 86.7001C164.4 87.1001 151.2 93.8001 140.6 83.1001C130.5 73.0001 131 40.4001 162.6 45.5001C165 45.9001 166.7 47.0001 169 47.2001L172.3 34.1001C157.3 27.0001 129.6 30.7001 120.3 50.6001C116.1 59.5001 115.2 70.5 118.4 80.3C122.9 94.1 135.3 103 149.5 103ZM407.8 20.9001V32.2001C395.3 32.2001 397.8 29.4001 397.8 46.0001H407.8V80.5001C407.8 93.2001 414.1 103.1 426.6 103.1C443.8 103.1 441 103.2 441 88.1001C436.6 88.1001 425.3 92.3001 425.3 78.1001V46.1001H441.6V32.3H425.3V14.7001L411.6 18.6001C409.7 18.9001 407.8 18.6001 407.8 20.9001ZM210.9 64.8V70.4001C210.9 89.4001 225.2 103 244.1 103C253.3 103 262.9 102.6 270.4 98.6001C270.4 96.6001 268.5 87.9001 267.9 86.7001C265.4 86.9001 264.5 87.6001 261.9 88.2001C248.9 91.1001 228.2 90.5 227.8 72.3H272.3C275.2 72.3 274.2 68.5001 274.2 61.0001C274.2 46.4001 263.4 30.9001 246 30.9001C234.5 30.9001 228.2 33.3001 220.4 41.1001C215.9 45.7001 210.9 55.7 210.9 64.8ZM285.5 37.2001C286.2 38.7001 288.5 46.5001 288.6 48.5001C292.7 47.5001 297.7 43.5001 307.4 43.5001C318 43.5001 321.2 48.3001 321.2 56.7001C303.6 56.7001 280.5 60.7001 280.5 82.4001C280.5 88.3001 282.5 92.9001 286.3 96.7001C293.2 103.5 296.4 103.1 305.6 103.1C309.5 103.1 313.1 101.7 315.8 100.2C319.5 98.1001 320.3 96.2 323.1 94.3C323.3 96.7 324.2 99.4 324.4 101.8H340.1C340.1 97.1 339.4 95.2001 339.5 90.5001C339.6 81.4001 339.9 60.9001 338.9 54.1001C334.5 22.0001 296.2 30.0001 285.5 37.2001ZM547 42.2001C547 35.7001 546.4 35.0001 546.4 32.2001C525.5 32.2001 531.4 30.4001 531.4 42.2001V130H547.5C550.8 129.1 549.5 125.5 549.5 113.7V94.9001C551.2 96.1001 550.3 96.0001 552.4 97.7001C562.7 106.2 577.8 104.4 588.4 96.1001C595.9 90.2001 600 79.6001 600.4 68.7001V64.9001C600.1 56.5001 597.6 48.1001 592.8 41.7001C584.3 30.3001 567 27.8001 556.4 34.6001C554.7 35.7001 553.1 36.7001 551.7 38.0001C548.5 40.8001 549.4 41.5001 547 42.2001Z" fill="#1E4FA0"/>
<path fill-rule="evenodd" clip-rule="evenodd" d="M35.8998 61.4999L23.4998 40.2C23.4998 40.2 23.2998 40.1999 23.2998 40.4999L22.5998 41.2C22.4998 41.3 22.3998 41.4999 22.2998 41.5999L14.2998 54.5999C15.8998 56.2999 17.2998 57.9999 18.9998 59.7999C20.7998 61.6999 22.3998 62.8 24.0998 64.7C27.2998 68.3 30.5998 72.0999 33.8998 75.2999C37.4998 73.9999 80.7998 45.8999 85.9998 42.7999L76.9998 27.2C71.7998 30.7 39.2998 59.8999 35.8998 61.4999Z" fill="white"/>
</svg>
