<?xml version="1.0" encoding="utf-8"?>
<!-- Generator: Adobe Illustrator 23.0.3, SVG Export Plug-In . SVG Version: 6.00 Build 0)  -->
<svg version="1.1" id="Layer_1" xmlns="http://www.w3.org/2000/svg" xmlns:xlink="http://www.w3.org/1999/xlink" x="0px" y="0px"
	 viewBox="0 0 498.76 165.63" style="enable-background:new 0 0 498.76 165.63;" xml:space="preserve">
<style type="text/css">
	.st0{clip-path:url(#SVGID_2_);}
	.st1{clip-path:url(#SVGID_4_);fill:#008893;}
	.st2{clip-path:url(#SVGID_4_);}
</style>
<g id="Vector_Smart_Object_1_">
	<g>
		<defs>
			<rect id="SVGID_1_" y="0" width="498.76" height="165.63"/>
		</defs>
		<clipPath id="SVGID_2_">
			<use xlink:href="#SVGID_1_"  style="overflow:visible;"/>
		</clipPath>
		<g class="st0">
			<defs>
				<rect id="SVGID_3_" y="0" width="498.76" height="165.63"/>
			</defs>
			<clipPath id="SVGID_4_">
				<use xlink:href="#SVGID_3_"  style="overflow:visible;"/>
			</clipPath>
			<path class="st1" d="M0,12.95L3.32,1.96H69c8.09,0,13.72,2.01,16.86,6.04c5.98,7.66,12,15.29,18.05,22.9
				c5.98,7.56,8.75,14.55,8.32,20.96c0.43,6.07-1.76,12.56-6.64,19.45c-5.07,7.19-10.17,14.35-15.31,21.48
				c-3.24,4.48-6.16,7.34-8.72,8.6c-2.59,1.27-6.64,1.89-12.12,1.89H0l3.02-11.07c2.01,0,3.85-0.1,5.48-0.29
				c1.66-0.2,2.48-2.16,2.48-5.9v-69c0-2.46-1.05-3.75-3.17-3.83C5.7,13.15,3.09,13.05,0,12.95 M81.52,51.87
				c0-1.62-0.88-4-2.69-7.14c-1.93-3.39-4.01-6.68-6.26-9.87c-2.3-3.33-4.71-6.58-7.21-9.75c-2.44-3.06-4.27-5.27-5.55-6.69
				c-2.26-3.36-5.41-5.12-9.43-5.27c-4.02-0.17-7.24-0.25-9.65-0.2v79.27c3.59,0,7.18-0.09,10.76-0.29c3.34-0.2,6.18-2.19,8.55-5.97
				c0.1-0.3,1.28-1.89,3.57-4.78c2.55-3.25,5.04-6.56,7.44-9.92c2.59-3.58,5.02-7.27,7.29-11.07
				C80.51,56.54,81.57,53.76,81.52,51.87 M157.31,45.01l-7.14,15.66H118.8l8.67-15.66H157.31z M200.02,16.53v71.73
				c0.1,1.62,1.83,2.86,5.2,3.76c3.35,0.89,7.04,0.77,11.04-0.42c3.99-1.19,7.66-3.78,11.01-7.73c3.34-3.95,5.08-10.02,5.23-18.18
				l9.12-2.69v40.28h-82.4l3.02-11.06c2.11,0,3.97-0.12,5.61-0.37c1.61-0.25,2.39-2.19,2.36-5.82v-69c0-2.09-0.9-3.31-2.66-3.68
				c-1.76-0.35-4.55-0.5-8.32-0.4l3.32-10.99H216l-3.24,10.91c-2.51,0.25-5.18,0.28-8.02,0.13C201.88,12.83,200.31,14,200.02,16.53
				 M279.47,12.08c2.06,3.36,2.36,6.56,0.96,9.62c-1.44,3.06-3.85,5.62-7.29,7.71c-3.49,2.14-8.1,3.08-13.83,2.86
				c-5.7-0.25-8.9-0.95-9.53-2.04c-0.73-1.02,0.07-4.13,2.44-9.3c2.37-5.17,5.28-8.8,8.75-10.89c3.45-2.14,6.86-3.16,10.26-3.06
				C274.59,7.08,277.36,8.78,279.47,12.08 M281.01,38.66v25.19c0,8.36,0.02,16.73,0.07,25.09c-0.16,2.46,0.77,4.3,2.76,5.49
				c1.91,1.17,4.12,1.8,6.36,1.8l-2.06,7.06h-42.48l1.91-6.99c3.14-0.1,5.2-1.27,6.19-3.45c0.98-2.22,1.48-3.69,1.48-4.43
				l0.07-32.62c0.3-2.64-0.53-4.13-2.46-4.47c-2.38-0.43-4.78-0.76-7.19-0.99l2.64-9.25c4.57,0.35,9.65-0.65,15.21-2.96
				c5.58-2.28,11.08-3.5,16.54-3.6c0.73,0.6,1.05,1.02,0.93,1.32C280.85,36.13,280.85,37.07,281.01,38.66 M340.01,52.89
				c-3.35,1.02-5.93,2.53-7.75,4.55c-1.47,1.62-2.89,3.28-4.27,4.97l0.07,26.08c0.51,5.45,3.47,8.04,8.9,7.74l-2.06,7.06h-42.48
				l1.91-6.99c5.1-0.65,7.66-3.25,7.66-7.88l0.07-32.62c0-2.68-0.86-4.23-2.54-4.67c-1.71-0.42-4.07-0.7-7.12-0.8l2.64-9.25
				c5.91-0.35,11.32-1.44,16.24-3.31c4.97-1.87,10.2-2.97,15.51-3.26c0.34,0.18,0.62,0.45,0.8,0.78c0.25,0.37,0.3,1.49,0.16,3.38
				c0,1.22,0.02,2.44,0.05,3.61c0.03,1.2,0.05,2.39,0.1,3.53c0,1.52,0.1,2.37,0.25,2.56c0.18,0.2,0.78,0.08,1.81-0.37
				c4.42-2.31,8.72-4.58,12.92-6.76c4.19-2.19,9.88-3.9,17.07-5.17c10.15,0.25,15.76,4.3,16.84,12.16v39.48
				c0.4,2.04,1.03,3.71,1.88,5.02c0.86,1.32,4.3,2.31,10.29,2.98l-4.28,7.59h-25.71c-5.28,0.15-7.94-2.06-7.94-6.64V61.19
				c0-2.54-1.39-4.67-4.13-6.46C344.17,52.96,341.86,52.34,340.01,52.89 M429.08,2.19v58.26l23.58-24.69h25.76l-2.05,7.29
				c-5.74-0.15-9.23,0.54-10.46,2.04c-3.02,2.99-6.04,5.99-9.05,9c-2.98,2.97-5.96,5.94-8.93,8.92l31.02,27.97
				c2.59,3.63,8.6,4.72,18.03,3.29l-2.64,9.02h-35.72l-29.38-27.82v13.48c0,2.14,0.63,3.75,1.84,4.85c1.23,1.09,3.64,1.89,7.21,2.44
				l-1.99,7.06h-42.55l1.98-6.99c3.25-0.96,5.25-1.87,6.04-2.66c0.8-0.79,1.33-2.54,1.63-5.22V22.2c0-2.29-0.83-3.65-2.46-4.15
				c-1.66-0.47-4-0.9-7.04-1.25l2.57-9.1L429.08,2.19z"/>
			<path class="st2" d="M0.67,157.97h12.86c1.76,0,3.4-0.15,4.97-0.49c1.57-0.29,3.02-1.01,4.19-2.09c1.19-1.08,1.79-2.65,1.79-4.71
				c0-1.35-0.34-2.51-1.01-3.51c-0.69-1.01-1.61-1.83-2.69-2.4c-1.15-0.57-2.41-0.9-3.7-0.97v-0.45c1.06-0.06,2.11-0.32,3.07-0.79
				c1.01-0.48,1.79-1.19,2.43-2.09c0.63-0.94,0.93-2.02,0.93-3.32c0-0.97-0.19-1.84-0.56-2.65c-0.39-0.88-1-1.65-1.76-2.25
				c-0.82-0.63-1.83-1.12-3.1-1.49c-1.5-0.37-3.05-0.54-4.6-0.52H0.67v1.08h1.27c0.6,0,1.12,0.19,1.61,0.48
				c0.49,0.38,0.71,1.01,0.71,1.95v20.71c0,1.61-0.79,2.43-2.32,2.43H0.67V157.97z M10.39,132.02c0.19-0.03,0.45-0.03,0.79-0.03
				c1.94,0,3.44,0.48,4.45,1.53c1,1,1.49,2.28,1.49,3.88c0,1.54-0.41,2.81-1.27,3.89c-0.82,1.04-2.13,1.57-3.96,1.57l-1.5-0.04
				L10.39,132.02l0.01,12.6h1.42c1.42,0,2.8,0.34,4.11,1.04c1.31,0.71,1.98,2.24,1.98,4.56c0,1.2-0.19,2.21-0.63,3.11
				c-0.36,0.86-0.98,1.59-1.76,2.09c-0.83,0.51-1.79,0.77-2.76,0.75c-1.57,0-2.36-0.94-2.36-2.73L10.39,132.02L10.39,132.02z
				 M38.09,157.97h7.18v-0.9c-0.75,0-1.23-0.15-1.46-0.44c-0.22-0.3-0.34-0.71-0.34-1.24v-16.41H36.3v0.9c1.2,0,1.79,0.56,1.79,1.68
				v11.28c-0.33,0.71-0.75,1.37-1.27,1.95c-0.52,0.56-1.01,0.82-1.5,0.82c-1.05,0-1.57-0.82-1.57-2.47v-14.16h-7.18v0.9h0.23
				c0.67,0.03,1.12,0.18,1.31,0.49c0.19,0.37,0.28,0.78,0.26,1.19v11.55c0,1.76,0.49,3.1,1.42,4.03c0.93,0.9,2.02,1.39,3.33,1.39
				c0.93,0,1.83-0.26,2.77-0.75c0.94-0.48,1.71-1.24,2.21-2.17L38.09,157.97L38.09,157.97z M46.47,157.97h8.97v-0.9
				c-0.71,0-1.2-0.15-1.46-0.44c-0.23-0.3-0.34-0.71-0.34-1.24v-16.41h-7.18v0.9c0.78,0,1.27,0.18,1.5,0.49
				c0.21,0.36,0.31,0.78,0.3,1.19v13.83c0,1.09-0.52,1.68-1.57,1.68h-0.23L46.47,157.97L46.47,157.97z M48.08,133.1
				c0,0.78,0.26,1.46,0.82,2.02c0.56,0.56,1.23,0.85,2.05,0.85c0.9,0,1.57-0.3,2.09-0.93c0.52-0.61,0.79-1.27,0.79-1.95
				c0-0.71-0.26-1.39-0.79-1.98c-0.52-0.6-1.23-0.9-2.09-0.9c-0.82,0-1.49,0.3-2.05,0.82C48.35,131.59,48.05,132.33,48.08,133.1
				 M56.48,157.97h8.97v-0.9c-0.75,0-1.23-0.15-1.45-0.44c-0.23-0.3-0.34-0.71-0.34-1.24v-25.16h-7.44v0.9h0.49
				c1.05,0,1.57,0.56,1.57,1.68v22.58c0,0.68-0.15,1.12-0.41,1.34c-0.34,0.24-0.75,0.36-1.16,0.34h-0.23V157.97z M78.47,158.53
				l6.17-1.47v-0.89h-0.22c-0.67,0-1.12-0.15-1.31-0.49c-0.21-0.38-0.31-0.8-0.3-1.23v-24.23h-7.44v0.9h0.49
				c1.04,0,1.57,0.56,1.57,1.68v7.25c-0.97-1.16-2.21-1.76-3.7-1.76c-1.24,0-2.32,0.41-3.36,1.23c-1.01,0.83-1.83,1.99-2.43,3.48
				c-0.6,1.49-0.9,3.17-0.9,5.04c0,2.47,0.34,4.49,0.93,6.06c0.63,1.57,1.42,2.7,2.39,3.37c0.97,0.72,1.98,1.05,3.03,1.05
				c1.68,0,3.03-0.79,4.04-2.33v2.33L78.47,158.53L78.47,158.53z M77.42,153.37c0,0.71-0.22,1.31-0.56,1.79
				c-0.36,0.48-0.93,0.76-1.53,0.75c-1.01,0-1.68-0.52-2.02-1.57c-0.3-1.05-0.49-2.39-0.49-4.07v-1.94v-1.5
				c-0.04-0.6-0.04-1.08-0.04-1.42c0-1.57,0.15-2.8,0.45-3.7c0.3-0.89,0.9-1.34,1.8-1.34c0.86,0,1.64,0.56,2.39,1.76L77.42,153.37
				L77.42,153.37z M85.83,157.97h8.97v-0.9c-0.71,0-1.2-0.15-1.46-0.44c-0.22-0.3-0.34-0.71-0.34-1.24v-16.41h-7.18v0.9
				c0.79,0,1.27,0.18,1.5,0.49c0.21,0.36,0.31,0.78,0.3,1.19v13.83c0,1.09-0.52,1.68-1.57,1.68h-0.23L85.83,157.97L85.83,157.97z
				 M87.44,133.1c0,0.78,0.26,1.46,0.82,2.02c0.56,0.56,1.23,0.85,2.06,0.85c0.9,0,1.57-0.3,2.09-0.93
				c0.52-0.61,0.79-1.27,0.79-1.95c0-0.71-0.26-1.39-0.79-1.98c-0.52-0.6-1.23-0.9-2.09-0.9c-0.82,0-1.5,0.3-2.06,0.82
				C87.71,131.59,87.42,132.33,87.44,133.1 M96,157.97h8.75v-0.9c-1.04,0-1.57-0.56-1.57-1.68v-11.93c0.94-1.64,1.91-2.43,2.88-2.43
				c1.04,0,1.57,0.67,1.57,2.02v12.34c0,1.12-0.53,1.68-1.57,1.68v0.9h8.74v-0.9h-0.23c-1.05,0-1.57-0.56-1.57-1.68v-11.63
				c0-1.27-0.22-2.32-0.63-3.14c-0.36-0.75-0.95-1.37-1.68-1.76c-0.7-0.38-1.49-0.57-2.28-0.56c-1.83,0-3.55,0.97-5.23,2.84v-2.17
				h-7.18v0.9c0.79,0,1.27,0.18,1.5,0.49c0.21,0.36,0.32,0.78,0.3,1.19v13.83c0,1.12-0.52,1.68-1.57,1.68h-0.23L96,157.97L96,157.97
				z M133.53,138.98h-5.23c-1.09-0.45-2.43-0.67-4.07-0.67c-1.98,0-3.55,0.38-4.71,1.08c-1.12,0.71-1.87,1.57-2.28,2.5
				c-0.41,0.93-0.6,1.83-0.6,2.62c0,1.31,0.38,2.54,1.12,3.66c0.79,1.12,1.83,1.91,3.22,2.39c-2.58,1.08-3.89,2.55-3.89,4.41
				c0,1.35,0.64,2.39,1.94,3.14v0.15c-0.74,0.13-1.41,0.5-1.91,1.05c-0.49,0.51-0.76,1.19-0.74,1.9c0,0.68,0.26,1.39,0.71,2.02
				c0.49,0.67,1.34,1.24,2.62,1.72c1.27,0.44,3.07,0.67,5.27,0.67c2.24,0,4-0.33,5.31-1.04c1.31-0.71,2.21-1.57,2.69-2.58
				c0.48-0.94,0.74-1.98,0.74-3.03c0-1.5-0.41-2.58-1.27-3.33c-0.78-0.72-1.76-1.2-2.8-1.38c-1.11-0.18-2.24-0.27-3.36-0.26
				c-0.26,0-0.67,0-1.16,0.04h-1.2c-0.86,0-1.57-0.07-2.05-0.26c-0.52-0.15-0.79-0.56-0.79-1.2c0-0.33,0.11-0.63,0.37-0.89
				c0.23-0.27,0.58-0.43,0.93-0.41c0.11,0,0.41,0,0.86,0.04c0.49,0.03,0.86,0.03,1.16,0.03c1.72,0,3.1-0.33,4.19-0.93
				c1.12-0.64,1.94-1.42,2.43-2.39c0.52-0.97,0.74-1.95,0.74-3.03c0.02-1.34-0.48-2.64-1.38-3.62l3.14,0.23L133.53,138.98
				L133.53,138.98z M124.41,149.7c-1.53,0-2.28-1.65-2.28-4.9c0-3.26,0.79-4.86,2.28-4.86c1.49,0,2.24,1.64,2.24,4.86
				C126.65,148.05,125.9,149.7,124.41,149.7l0.6,14.29c-1.87,0-3.18-0.26-4-0.75c-0.82-0.52-1.23-1.16-1.23-1.9
				c0-1.09,0.45-1.8,1.35-2.17c0.9-0.38,2.09-0.56,3.59-0.56c1.68,0,3.03,0.15,4.04,0.44c1.01,0.3,1.49,0.94,1.49,1.95
				c0,1.98-1.72,2.99-5.24,2.99L124.41,149.7z M148.15,130.23v1.08c0.86,0.04,1.57,0.22,2.17,0.6c0.6,0.34,1.16,0.94,1.68,1.72
				v20.83c0,0.93-0.22,1.53-0.71,1.9c-0.46,0.35-1.03,0.53-1.61,0.53h-1.27v1.08h8.97v-1.08h-1.27c-0.6,0-1.12-0.19-1.61-0.53
				c-0.48-0.37-0.71-1.01-0.71-1.9v-19.11l18.62,23.18h1.04v-24.79c0-0.94,0.26-1.54,0.71-1.9c0.46-0.34,1.03-0.53,1.61-0.52h1.27
				v-1.08h-8.97v1.08h1.27c0.6,0,1.16,0.19,1.61,0.52c0.48,0.37,0.71,1.01,0.71,1.9v14.24l-14.28-17.75H148.15z M193.31,152.21
				c-1.16,2.05-2.51,3.1-4.15,3.1c-1.16,0-2.13-0.33-2.91-1c-0.82-0.71-1.42-1.57-1.8-2.7c-0.41-1.15-0.61-2.36-0.6-3.59h10.43
				c0-1.5-0.19-2.8-0.56-4.04c-0.37-1.19-0.86-2.24-1.57-3.1c-0.66-0.82-1.49-1.48-2.43-1.94c-0.98-0.46-2.05-0.69-3.14-0.67
				c-1.57,0-2.99,0.49-4.22,1.42c-1.31,1.04-2.32,2.41-2.92,3.97c-0.74,1.76-1.11,3.66-1.08,5.57c0,1.64,0.34,3.17,0.94,4.59
				c0.6,1.42,1.53,2.58,2.76,3.4c1.27,0.87,2.77,1.32,4.49,1.32c2.02,0,3.63-0.57,4.86-1.72c1.25-1.12,2.23-2.5,2.88-4.04
				L193.31,152.21z M183.85,146.37c0-1.68,0.15-3.03,0.45-3.96c0.3-0.97,0.67-1.6,1.05-1.94c0.45-0.38,0.86-0.52,1.27-0.52
				c0.41,0,0.78,0.15,1.16,0.44c0.38,0.3,0.71,0.86,0.97,1.68c0.26,0.82,0.41,1.9,0.41,3.37c0,0.07,0,0.22-0.04,0.44v0.49
				L183.85,146.37L183.85,146.37z M195.85,140.65h2.39v12.38c0,3.66,1.54,5.5,4.56,5.5c1.42,0,2.47-0.38,3.18-1.13
				c0.75-0.78,1.42-1.98,2.05-3.63l-1.01-0.34c-0.45,1.57-1.12,2.35-2.05,2.35c-0.56,0-0.9-0.22-1.08-0.71
				c-0.19-0.48-0.26-1.16-0.26-2.05v-12.38h4.07v-1.68h-4.07v-7.11h-0.79c-0.51,1.13-1.12,2.2-1.83,3.22
				c-0.73,1.02-1.57,1.95-2.51,2.77c-0.86,0.82-1.76,1.42-2.65,1.8L195.85,140.65L195.85,140.65z M208.18,138.98v0.9
				c0.42,0,0.72,0.15,0.94,0.37c0.23,0.26,0.41,0.6,0.6,1.09l6.21,17.2h1.12l4.3-11.9l3.85,11.9h1.12l5.57-16.38
				c0.3-0.79,0.56-1.35,0.82-1.72c0.26-0.38,0.67-0.56,1.2-0.56v-0.9h-5.2v0.9h0.15c0.52,0,0.86,0.15,1.12,0.37
				c0.22,0.22,0.34,0.52,0.33,0.82c0,0.19-0.07,0.6-0.26,1.24l-2.5,7.74l-2.58-8.26c-0.1-0.29-0.17-0.59-0.19-0.9
				c0.03-0.67,0.37-1.01,1.08-1.01h0.89v-0.9h-8.63v0.9c0.71,0,1.24,0.49,1.53,1.45l0.86,2.69l-2.13,6.02l-2.84-8.26
				c-0.11-0.28-0.18-0.59-0.19-0.9c0.04-0.67,0.37-1.01,1.08-1.01h0.38v-0.9L208.18,138.98L208.18,138.98z M243.59,158.53
				c1.49,0,2.92-0.38,4.26-1.13c1.39-0.78,2.47-1.9,3.33-3.4c0.9-1.53,1.31-3.4,1.31-5.57c0-2.17-0.45-4.04-1.31-5.56
				c-0.9-1.54-1.99-2.65-3.37-3.44c-1.29-0.73-2.74-1.12-4.22-1.12c-1.61-0.01-3.2,0.44-4.56,1.31c-1.37,0.92-2.46,2.18-3.18,3.67
				c-0.78,1.61-1.17,3.37-1.16,5.16c0,2.17,0.45,4.04,1.31,5.57c0.9,1.54,2.02,2.65,3.4,3.4
				C240.74,158.16,242.16,158.53,243.59,158.53 M243.59,156.88c-1.35,0-2.21-0.75-2.58-2.28c-0.37-1.54-0.56-3.59-0.56-6.17
				c0-1.19,0.04-2.24,0.08-3.17c0.06-0.88,0.19-1.75,0.38-2.62c0.22-0.82,0.52-1.46,0.97-1.95c0.41-0.52,1.01-0.74,1.72-0.74
				c1.38,0,2.24,0.78,2.58,2.28c0.38,1.53,0.56,3.59,0.56,6.2c0,2.58-0.18,4.68-0.56,6.17
				C245.79,156.13,244.93,156.88,243.59,156.88 M254.2,157.97h8.98v-0.9c-0.71,0-1.2-0.15-1.46-0.44c-0.23-0.3-0.34-0.71-0.34-1.24
				v-9.38c0-1.17,0.11-2.06,0.34-2.77c0.23-0.67,0.67-1.01,1.42-1.01c0.3,0,0.61,0.18,0.97,0.6c0.38,0.38,0.67,0.67,0.9,0.83
				c0.22,0.18,0.56,0.26,1.12,0.26c0.71,0,1.39-0.26,1.91-0.75c0.52-0.52,0.79-1.23,0.79-2.13c0-0.94-0.3-1.61-0.9-2.06
				c-0.62-0.46-1.37-0.69-2.13-0.67c-0.85,0-1.72,0.26-2.5,0.74c-0.82,0.53-1.48,1.26-1.9,2.13v-2.21h-7.18v0.9
				c0.79,0,1.27,0.18,1.5,0.49c0.21,0.36,0.31,0.78,0.3,1.19v13.83c0,1.09-0.52,1.68-1.57,1.68h-0.23V157.97z M269.34,157.97h8.97
				v-0.9h-0.22c-1.05,0-1.57-0.56-1.57-1.68v-5.42l0.52-0.6l3.93,6.2c0.15,0.21,0.24,0.46,0.26,0.72c0,0.52-0.38,0.78-1.12,0.78
				h-0.33v0.9h8.89v-0.9c-0.33-0.05-0.63-0.21-0.86-0.44c-0.11-0.12-0.18-0.23-0.29-0.38c-0.07-0.15-0.12-0.26-0.15-0.26
				l-6.77-10.46l3.85-4.15c0.85-1,1.83-1.49,2.91-1.49v-0.9h-8.04v0.9h0.34c1.35,0,1.99,0.49,1.99,1.49c0,0.41-0.23,0.89-0.67,1.38
				l-4.45,4.97v-17.49h-7.44v0.9h0.49c1.05,0,1.57,0.56,1.57,1.68v22.58c0,1.12-0.52,1.68-1.57,1.68h-0.23V157.97z M289.71,152.02
				l0.33,6.51h0.9c0.23-0.79,0.6-1.17,1.2-1.17c0.15,0,0.85,0.22,2.02,0.68c0.89,0.34,1.76,0.49,2.54,0.49
				c1.2,0,2.28-0.26,3.25-0.79c0.94-0.52,1.74-1.27,2.32-2.17c0.6-0.93,0.86-1.97,0.86-3.1c0-1.27-0.3-2.35-0.9-3.25
				c-0.5-0.82-1.16-1.52-1.94-2.06c-0.71-0.49-1.61-0.94-2.62-1.46c-0.34-0.18-0.75-0.38-1.27-0.63c-0.48-0.24-0.94-0.51-1.38-0.82
				c-0.37-0.28-0.7-0.6-0.97-0.97c-0.22-0.34-0.34-0.75-0.34-1.16c0.02-0.56,0.25-1.09,0.63-1.5c0.41-0.45,1.05-0.67,1.83-0.67
				c1.16,0,2.24,0.41,3.26,1.27c1.01,0.86,1.68,1.99,2.02,3.4h0.89l-0.34-6.32h-0.89c-0.02,0.34-0.13,0.67-0.34,0.94
				c-0.18,0.21-0.44,0.33-0.71,0.34c-0.23,0-0.67-0.19-1.34-0.53c-0.97-0.52-2.06-0.74-3.29-0.74c-1.01,0-1.95,0.26-2.81,0.82
				c-0.89,0.56-1.56,1.27-2.05,2.21c-0.52,0.91-0.8,1.94-0.79,2.99c0.04,1.46,0.45,2.69,1.27,3.63c0.89,0.97,2.17,1.9,3.85,2.8
				c1.05,0.52,1.68,0.86,2.02,1.01c0.3,0.19,0.63,0.41,1.01,0.67c0.38,0.23,0.67,0.56,0.9,0.9c0.23,0.38,0.34,0.82,0.33,1.27
				c0,0.6-0.22,1.12-0.71,1.57c-0.49,0.48-1.16,0.71-2.06,0.71c-1.35,0-2.54-0.49-3.63-1.43c-1.12-0.97-1.83-2.09-2.17-3.44H289.71z
				 M318.87,157.97h13.87v-1.08h-1.83c-0.58,0-1.15-0.18-1.61-0.53c-0.48-0.37-0.71-1.01-0.71-1.9v-9.65h1.01
				c1.23,0,2.32,0.33,3.29,1.01c1.01,0.71,1.61,2.21,1.87,4.6h1.08v-12.97h-1.08c-0.26,2.36-0.89,3.89-1.87,4.56
				c-0.97,0.67-2.05,1.01-3.29,1.01h-1.01v-11h3.25c2.35,0,4.16,0.45,5.35,1.31c1.19,0.9,1.94,2.47,2.2,4.75h1.08v-7.85h-21.61v1.08
				h1.27c0.59,0,1.16,0.19,1.61,0.52c0.49,0.37,0.71,1.01,0.71,1.9v20.71c0,0.93-0.23,1.53-0.71,1.9c-0.47,0.34-1.03,0.52-1.61,0.53
				h-1.27V157.97z M350.69,158.53c1.49,0,2.91-0.38,4.26-1.13c1.39-0.78,2.46-1.9,3.33-3.4c0.89-1.53,1.31-3.4,1.31-5.57
				c0-2.17-0.44-4.04-1.31-5.56c-0.9-1.54-1.98-2.65-3.37-3.44c-1.29-0.73-2.74-1.12-4.22-1.12c-1.68,0-3.22,0.45-4.56,1.31
				c-1.37,0.92-2.46,2.18-3.18,3.67c-0.77,1.61-1.17,3.37-1.16,5.16c0,2.17,0.44,4.04,1.31,5.57c0.89,1.54,2.02,2.65,3.4,3.4
				C347.84,158.16,349.26,158.53,350.69,158.53 M350.69,156.88c-1.35,0-2.21-0.75-2.58-2.28c-0.38-1.54-0.56-3.59-0.56-6.17
				c0-1.19,0.04-2.24,0.07-3.17c0.07-0.94,0.18-1.8,0.38-2.62c0.22-0.82,0.52-1.46,0.97-1.95c0.41-0.52,1.01-0.74,1.72-0.74
				c1.38,0,2.24,0.78,2.58,2.28c0.38,1.53,0.56,3.59,0.56,6.2c0,2.58-0.18,4.68-0.56,6.17
				C352.89,156.13,352.03,156.88,350.69,156.88 M361.3,157.97h8.97v-0.9c-0.71,0-1.2-0.15-1.46-0.44c-0.22-0.3-0.34-0.71-0.34-1.24
				v-9.38c0-1.17,0.11-2.06,0.34-2.77c0.23-0.67,0.67-1.01,1.43-1.01c0.29,0,0.59,0.18,0.97,0.6c0.38,0.38,0.67,0.67,0.9,0.83
				c0.22,0.18,0.56,0.26,1.12,0.26c0.71,0,1.39-0.26,1.9-0.75c0.53-0.52,0.79-1.23,0.79-2.13c0-0.94-0.3-1.61-0.89-2.06
				c-0.62-0.46-1.37-0.69-2.13-0.67c-0.85,0-1.72,0.26-2.5,0.74c-0.82,0.53-1.48,1.26-1.9,2.13v-2.21h-7.17v0.9
				c0.78,0,1.27,0.18,1.49,0.49c0.21,0.36,0.31,0.78,0.3,1.19v13.83c0,1.09-0.52,1.68-1.57,1.68h-0.22L361.3,157.97L361.3,157.97z
				 M390.61,157.97h13.83v-1.08h-1.79c-0.58,0-1.14-0.18-1.61-0.53c-0.48-0.37-0.71-1.01-0.71-1.9v-9.46
				c0.86,0.11,1.83,0.15,2.92,0.15c3.07,0,5.38-0.44,6.99-1.34c1.61-0.93,2.65-1.94,3.1-3.07c0.49-1.16,0.71-2.24,0.71-3.33
				c0-2.02-0.6-3.51-1.72-4.56c-1.07-1.04-2.4-1.78-3.85-2.13c-1.23-0.31-2.5-0.47-3.77-0.49h-14.09v1.08h1.26
				c0.61,0,1.17,0.19,1.61,0.52c0.49,0.37,0.71,1.01,0.71,1.9v20.71c0,0.93-0.23,1.53-0.71,1.9c-0.47,0.34-1.03,0.53-1.61,0.53
				h-1.26V157.97z M400.32,132.02h1.95c0.97,0,1.83,0.11,2.54,0.26c0.71,0.19,1.34,0.71,1.9,1.5c0.56,0.79,0.82,1.98,0.82,3.62
				c0,0.9-0.07,1.79-0.3,2.65c-0.18,0.82-0.67,1.61-1.49,2.32c-0.79,0.71-1.99,1.05-3.59,1.05c-0.6,0-1.2-0.08-1.83-0.22V132.02z
				 M430.57,152.21c-1.16,2.05-2.5,3.1-4.15,3.1c-1.16,0-2.13-0.33-2.92-1c-0.83-0.72-1.46-1.65-1.8-2.7
				c-0.4-1.15-0.61-2.37-0.59-3.59h10.43c0.02-1.37-0.17-2.73-0.56-4.04c-0.37-1.19-0.86-2.24-1.57-3.1
				c-0.66-0.82-1.49-1.48-2.43-1.94c-0.98-0.46-2.06-0.69-3.14-0.67c-1.57,0-2.99,0.49-4.22,1.42c-1.23,0.97-2.25,2.29-2.92,3.97
				c-0.74,1.76-1.11,3.66-1.08,5.57c0,1.64,0.34,3.17,0.94,4.59c0.6,1.42,1.53,2.58,2.77,3.4c1.27,0.87,2.77,1.32,4.48,1.32
				c2.02,0,3.63-0.57,4.86-1.72c1.24-1.12,2.23-2.5,2.87-4.04L430.57,152.21z M421.11,146.37c0-1.68,0.15-3.03,0.46-3.96
				c0.29-0.97,0.67-1.6,1.04-1.94c0.35-0.32,0.8-0.51,1.27-0.52c0.4,0,0.78,0.15,1.16,0.44c0.37,0.3,0.71,0.86,0.97,1.68
				c0.26,0.82,0.41,1.9,0.41,3.37c0,0.07,0,0.22-0.03,0.44v0.49L421.11,146.37L421.11,146.37z M442.53,158.53
				c1.5,0,2.92-0.38,4.27-1.13c1.38-0.78,2.46-1.9,3.32-3.4c0.9-1.53,1.31-3.4,1.31-5.57c0-2.17-0.44-4.04-1.31-5.56
				c-0.89-1.54-1.98-2.65-3.36-3.44c-1.29-0.73-2.74-1.12-4.23-1.12c-1.61-0.01-3.2,0.44-4.56,1.31c-1.37,0.92-2.46,2.18-3.18,3.67
				c-0.78,1.61-1.17,3.37-1.16,5.16c0,2.17,0.44,4.04,1.31,5.57c0.9,1.54,2.02,2.65,3.4,3.4
				C439.62,158.14,441.06,158.52,442.53,158.53 M442.53,156.88c-1.34,0-2.2-0.75-2.58-2.28c-0.38-1.54-0.56-3.59-0.56-6.17
				c0-1.19,0.03-2.24,0.07-3.17c0.08-0.94,0.19-1.8,0.38-2.62c0.23-0.82,0.52-1.46,0.97-1.95c0.41-0.52,1-0.74,1.72-0.74
				c1.39,0,2.25,0.78,2.58,2.28c0.38,1.53,0.56,3.59,0.56,6.2c0,2.58-0.19,4.68-0.56,6.17
				C444.73,156.13,443.88,156.88,442.53,156.88 M459.28,138.3l-6.13,1.45v0.9h0.22c0.67,0,1.12,0.19,1.31,0.49
				c0.15,0.33,0.26,0.75,0.26,1.24v20.49c0,1.12-0.52,1.68-1.57,1.68h-0.22v0.9h9.23v-0.9h-0.49c-1.05,0-1.57-0.56-1.57-1.68v-6.1
				c1.01,1.16,2.24,1.77,3.7,1.77c1.31,0,2.47-0.41,3.47-1.24c1.05-0.82,1.83-1.94,2.4-3.44c0.56-1.49,0.82-3.17,0.82-5.08
				c0-3.32-0.56-5.9-1.72-7.7c-1.12-1.83-2.66-2.72-4.63-2.72c-1.72,0-3.07,0.78-4.04,2.31v-2.35L459.28,138.3L459.28,138.3z
				 M460.33,143.46c0.04-0.86,0.26-1.49,0.71-1.9c0.44-0.45,0.89-0.64,1.38-0.64c1.08,0,1.76,0.56,2.1,1.68
				c0.3,1.12,0.44,2.62,0.44,4.56v2.58c0.04,0.64,0.04,1.09,0.04,1.42c0,1.61-0.15,2.92-0.45,3.85c-0.34,0.97-0.93,1.46-1.83,1.46
				c-0.46-0.04-0.91-0.23-1.27-0.52c-0.45-0.34-0.83-0.76-1.12-1.24L460.33,143.46L460.33,143.46z M472.29,157.97h8.97v-0.9
				c-0.75,0-1.24-0.15-1.46-0.44c-0.22-0.3-0.34-0.71-0.34-1.24v-25.16h-7.43v0.9h0.48c1.05,0,1.57,0.56,1.57,1.68v22.58
				c0,0.68-0.15,1.12-0.41,1.34c-0.34,0.24-0.75,0.36-1.16,0.34h-0.22V157.97z M497.79,152.21c-1.16,2.05-2.51,3.1-4.16,3.1
				c-1.16,0-2.12-0.33-2.91-1c-0.84-0.71-1.46-1.65-1.79-2.7c-0.41-1.15-0.62-2.36-0.6-3.59h10.43c0.02-1.37-0.17-2.73-0.56-4.04
				c-0.38-1.19-0.86-2.24-1.57-3.1c-0.66-0.82-1.49-1.48-2.44-1.94c-0.98-0.46-2.05-0.69-3.14-0.67c-1.53-0.01-3.01,0.49-4.22,1.42
				c-1.24,0.97-2.25,2.29-2.91,3.97c-0.74,1.76-1.11,3.66-1.09,5.57c0,1.64,0.33,3.17,0.94,4.59c0.59,1.42,1.53,2.58,2.76,3.4
				c1.27,0.87,2.77,1.32,4.49,1.32c2.02,0,3.63-0.57,4.86-1.72c1.25-1.12,2.23-2.5,2.88-4.04L497.79,152.21z M488.32,146.37
				c0-1.68,0.16-3.03,0.45-3.96c0.3-0.97,0.67-1.6,1.04-1.94c0.45-0.38,0.86-0.52,1.27-0.52c0.41,0,0.79,0.15,1.16,0.44
				c0.38,0.3,0.71,0.86,0.97,1.68c0.26,0.82,0.41,1.9,0.41,3.37c0,0.07,0,0.22-0.03,0.44v0.49L488.32,146.37L488.32,146.37z"/>
			<path class="st1" d="M474.41,14.31h1.42l3.29,5.98h3.59l-3.63-6.22c1.87-0.14,3.43-1.07,3.43-3.7c0-3.25-2.18-4.28-5.84-4.28
				h-5.29V20.3h3.04V14.31z M474.41,8.5h2.11c1.14,0,2.73,0.1,2.73,1.56c0,1.59-0.79,1.83-2.17,1.83h-2.67V8.5z M489.83,13.2
				c0-8.33-6.26-13.2-13.24-13.2c-7.02,0-13.28,4.87-13.28,13.2c0,8.33,6.27,13.21,13.28,13.21
				C483.57,26.41,489.83,21.54,489.83,13.2 M486.03,13.2c0,6.08-4.36,10.16-9.44,10.16c-5.22,0-9.47-4.08-9.47-10.16
				c0-6.08,4.26-10.13,9.47-10.13C481.67,3.08,486.03,7.12,486.03,13.2"/>
		</g>
	</g>
</g>
</svg>
