<svg width="2428" height="626" viewBox="0 0 2428 626" fill="none" xmlns="http://www.w3.org/2000/svg">
<path fill-rule="evenodd" clip-rule="evenodd" d="M0.755859 90.9965V0.54541H294.936V90.9965H0.755859ZM294.936 245.402V154.963H0.755859V410.753H294.936V313.013H111.31V245.415H294.936V245.402V245.402ZM639.361 90.9965L554.396 0.54541H1075.13V90.9965H639.361ZM1075.13 245.402V154.963H780.965V410.753H1075.15V313.013H891.506V245.415H1075.13V245.402V245.402ZM464.866 1.46625V0.558373H362.547V410.74H464.866V166.831H481.312L725.234 413.503V263.663L464.866 1.46625ZM1435.08 411.648L1289.83 264.584V250.875C1353.77 245.389 1404.03 191.486 1404.03 125.717C1404.03 55.3686 1347.39 0.558373 1277.05 0.558373H1135.43V98.3114H1279.77C1296.21 98.3114 1308.1 111.1 1308.1 126.637C1308.1 142.175 1296.21 154.963 1279.77 154.963H1135.43V251.796H1136.34L1291.65 411.661H1435.08V411.648V411.648ZM1832.48 261.847V163.186H1629.67V261.847H1832.48ZM1517.31 211.589C1517.31 271.886 1565.74 320.302 1626.94 320.302H1795.04V411.648H1624.21C1510.01 411.648 1416.82 321.21 1416.82 207.932C1416.82 92.8253 1510.02 0.54541 1624.21 0.54541H1795.04V101.956H1626.94C1612.54 101.924 1598.27 104.737 1584.95 110.235C1571.63 115.733 1559.54 123.808 1549.35 133.994C1539.16 144.181 1531.09 156.28 1525.59 169.596C1520.09 182.912 1517.28 197.183 1517.31 211.589V211.589ZM1828.83 1.46625H1960.41L2198.83 237.179L2018.88 411.661H1883.65L2048.11 237.179L1828.83 1.46625V1.46625ZM2427.24 0.558373H2075.52L2252.73 181.448L2427.24 0.558373ZM2184.22 378.77C2184.22 363.245 2172.36 352.272 2157.74 352.272C2143.13 352.272 2131.25 363.245 2131.25 378.77C2131.46 385.65 2134.35 392.177 2139.29 396.968C2144.23 401.759 2150.85 404.438 2157.73 404.438C2164.62 404.438 2171.23 401.759 2176.17 396.968C2181.12 392.177 2184 385.65 2184.22 378.77V378.77ZM2134.89 378.77C2134.89 390.65 2144.94 400.702 2157.74 400.702C2170.51 400.702 2180.57 390.65 2180.57 378.77C2180.57 365.981 2170.52 355.917 2157.74 355.917C2154.74 355.889 2151.75 356.461 2148.97 357.6C2146.18 358.739 2143.65 360.421 2141.52 362.549C2139.4 364.676 2137.71 367.207 2136.57 369.992C2135.44 372.777 2134.86 375.761 2134.89 378.77V378.77ZM2170.51 393.387L2162.3 379.678C2166.86 379.678 2171.44 376.941 2171.44 371.468C2171.44 368.705 2170.51 365.969 2167.77 365.061C2165.94 363.232 2163.2 363.232 2160.48 363.232H2147.69V393.374H2151.34V379.665H2157.74L2166.86 393.374H2170.51V393.387V393.387ZM2156.82 376.954C2161.39 376.954 2167.77 376.954 2167.77 371.481C2167.77 366.889 2163.2 365.981 2159.56 365.981H2151.32V376.954H2156.82ZM215.457 623.626V538.661H222.759V615.39H251.085V623.626H215.457ZM388.124 536.819C408.214 536.819 410.964 559.672 410.043 579.762C410.043 602.615 408.214 625.455 388.124 625.455C368.021 625.455 366.192 602.602 365.284 579.762C365.284 559.659 368.021 536.819 388.124 536.819V536.819ZM388.124 545.963C376.244 545.963 373.507 560.58 373.507 579.749C373.507 604.418 375.336 617.219 388.124 617.219C400.912 617.219 402.741 604.431 402.741 579.749C402.741 560.58 400.004 545.963 388.124 545.963ZM535.214 538.661H542.516V599.865C542.516 606.246 543.437 617.219 555.304 617.219C568.092 617.219 569.013 606.246 569.013 599.865V538.661H576.315V603.51C576.315 618.127 568.092 625.442 555.304 625.442C543.424 625.442 535.201 618.127 535.201 603.51V538.661H535.214V538.661ZM697.829 623.626V538.661H716.103C737.114 538.661 740.772 560.567 739.864 581.604C738.943 601.694 736.206 623.626 717.932 623.626H697.829V623.626ZM705.131 615.39H717.011C727.971 615.39 732.536 604.418 732.536 579.749C731.628 560.567 729.799 546.871 717.011 546.871H705.131V615.39ZM896.072 561.488C896.072 552.344 892.414 545.963 885.112 545.963C874.153 545.963 873.232 554.199 873.232 560.58C873.232 566.961 875.061 570.631 879.626 572.46C883.284 574.289 886.941 576.105 890.585 577.026C903.374 583.433 905.202 588.906 905.202 599.878C905.202 616.324 896.98 625.468 884.191 625.468C877.797 625.468 869.574 623.639 865.917 612.679C864.088 608.088 864.088 601.707 864.088 597.155H872.311C871.403 609.009 873.219 617.245 885.099 617.245C892.401 617.245 897.887 612.679 897.887 602.628C897.887 589.84 893.309 589.84 886.928 586.182C883.271 584.353 876.876 581.617 873.219 579.775C866.825 575.21 864.996 568.829 864.996 560.593C864.996 545.976 873.219 536.832 884.178 536.832C896.967 536.832 904.282 545.068 903.361 561.501H896.072V561.488V561.488ZM1026.72 623.626V538.661H1044.08C1049.56 538.661 1055.95 539.569 1060.53 544.134C1064.17 548.7 1066 556.015 1066 562.396C1066 571.539 1063.26 580.683 1055.95 585.248C1051.38 587.985 1044.08 587.985 1038.6 587.985H1034.02V623.626H1026.72ZM1034.02 578.841H1041.32C1051.37 578.841 1057.77 577.013 1057.77 562.396C1057.77 548.687 1051.37 546.871 1042.24 546.871H1034.02V578.841ZM1182.94 623.626V538.661H1215.82V546.871H1190.24V575.197H1213.99V583.433H1190.24V615.403H1215.82V623.639H1182.94V623.626ZM1354.71 538.661H1364.73L1383.93 623.626H1375.69L1370.22 598.957H1349.2L1343.72 623.626H1335.49L1354.71 538.661V538.661ZM1360.17 545.963L1351.03 590.722H1368.38L1360.17 545.963ZM1504.51 623.626V538.661H1511.82V582.512L1536.47 538.661H1546.52L1524.61 574.276L1546.52 623.626H1537.4L1519.11 582.512L1511.82 594.366V623.626H1504.51ZM1663.47 623.626V538.661H1697.28V546.871H1670.78V575.197H1695.45V583.433H1670.78V615.403H1697.28V623.639H1663.47V623.626ZM1827.92 623.626H1819.71V538.661H1837.07C1851.68 538.661 1860.8 543.226 1859.89 563.304C1859.89 573.355 1855.33 579.749 1847.13 581.591C1856.25 582.499 1858.08 586.156 1858.99 597.116C1859.89 603.497 1859.89 609.904 1860.81 616.298C1860.81 618.127 1861.75 621.771 1863.58 621.771V623.626H1854.43C1852.6 618.127 1852.6 608.075 1852.6 601.694C1852.6 593.458 1849.87 586.169 1840.72 586.169H1827.94V623.626H1827.92V623.626ZM1827.92 577.933H1839.8C1842.54 577.933 1852.59 577.026 1852.59 562.409C1852.59 547.792 1843.45 546.884 1837.97 546.884H1827.92V577.933V577.933ZM2008.81 561.488C2009.72 552.344 2006.08 545.963 1997.84 545.963C1986.89 545.963 1985.96 554.199 1985.96 560.58C1985.96 566.961 1987.79 570.631 1992.37 572.46C1996.01 574.289 1999.66 576.105 2003.34 577.026C2016.13 583.433 2018.86 588.906 2018.86 599.878C2018.86 616.324 2010.63 625.468 1996.93 625.468C1990.55 625.468 1982.32 623.639 1978.67 612.679C1976.84 608.088 1977.76 601.707 1976.84 597.155H1985.05C1984.14 609.009 1985.96 617.245 1997.84 617.245C2005.16 617.245 2010.63 612.679 2010.63 602.628C2010.63 589.84 2006.06 589.84 1999.66 586.182C1996.01 584.353 1989.63 581.617 1985.95 579.775C1979.57 575.21 1977.74 568.829 1977.74 560.593C1977.74 545.976 1985.95 536.832 1996.92 536.832C2009.71 536.832 2017.04 545.068 2016.11 561.501H2008.81V561.488V561.488Z" fill="black"/>
</svg>
