<?xml version="1.0" encoding="utf-8"?>
<!-- Generator: Adobe Illustrator 23.0.3, SVG Export Plug-In . SVG Version: 6.00 Build 0)  -->
<svg version="1.1" id="Layer_1" xmlns="http://www.w3.org/2000/svg" xmlns:xlink="http://www.w3.org/1999/xlink" x="0px" y="0px"
	 viewBox="0 0 2500 2500" style="enable-background:new 0 0 2500 2500;" xml:space="preserve">
<style type="text/css">
	.st0{fill:#015294;}
</style>
<g>
	<path class="st0" d="M2494.8,1158.38c-15.91-213.07-86.43-422.16-205.53-599.72c-116.75-174.57-277.69-320.24-464.77-416.05
		C1679.89,66.48,1519.6,21.8,1357.03,7.39c-36.72-7.81-73.58,0.57-110.58,0.78c-87.64,250.99-178.62,500.78-266.97,751.48
		c64.28,1.14,128.55-0.92,192.76,0.99c46.95,1.92,96.16,21.52,122.09,62.57c29.68,46.38,28.05,105.82,9.38,156.11
		c-87.36,245.81-175.58,491.34-262.72,737.29c-77.13,1.06-154.26-0.15-231.39,0.57c-10.72-0.22-21.87,1.06-32.1-3.06
		c97.94-270.16,193.61-541.26,290.13-811.92c-46.02-0.71-92.05,0.28-138.07-0.5c-7.1,14.7-12.07,30.33-17.4,45.81
		c-88.78,249.72-178.34,499.22-266.83,749.08c-4.19,6.39-3.13,20.31-13.14,20.38c-73.44,0.29-146.95-0.21-220.38,0.14
		c-13.21-0.14-26.7,1.36-39.56-2.55C573.72,1155.61,770.6,595.03,972.16,36.15C578.41,120.38,239.7,415.06,93.32,789.28
		C33.31,937.43,7.17,1097.44,3.84,1256.75c4.12,76.49,9.52,153.2,24.36,228.55c47.37,250.92,175.43,485.65,359.87,662.14
		c153.13,148.01,345.17,255.11,551.28,308.59c200.64-561.07,400.13-1122.59,600-1683.95c1.98-4.05,6.04-12.22,8.03-16.34
		c123.37,1.21,246.8,0.21,370.24,0.57c40.48,0.71,82.04-3.76,121.38,8.45c45.32,12.22,87.5,44.82,101.42,90.91
		c10.3,36.36,3.13,75.07-9.8,109.8c-78.76,229.97-162.14,458.31-243.47,687.29c-20.17,59.65-80.82,97.02-142.19,99.15
		c-96.16,1.78-192.4-0.64-288.56,1.14c-88.35,246.16-175.85,492.62-263.42,738.99c22.86,9.74,47.22,2.13,71.02,3.7
		c35.92,2.77,71.59-3.84,107.31-6.39c234.52-21.53,461.79-112.36,647.02-257.61c148.64-115.91,270.75-265.91,353.2-435.44
		c72.29-145.88,112.85-306.53,124.5-468.54C2490.54,1271.52,2492.18,1214.77,2494.8,1158.38z"/>
	<path class="st0" d="M1506.11,1611.65c46.24,0.28,92.76,2.27,138.92-0.99c81.68-237.5,168.61-473.15,251.64-710.16
		c-35.67-0.78-71.31,0.14-106.97-0.5c-10.22,1.49-23.86-3.76-31.53,4.9v0C1673.86,1140.41,1590.41,1376.21,1506.11,1611.65z"/>
</g>
</svg>
