<?xml version="1.0" encoding="utf-8"?>
<!-- Generator: Adobe Illustrator 23.0.3, SVG Export Plug-In . SVG Version: 6.00 Build 0)  -->
<svg version="1.1" id="Layer_1" xmlns="http://www.w3.org/2000/svg" xmlns:xlink="http://www.w3.org/1999/xlink" x="0px" y="0px"
	 viewBox="0 0 2500 1649" style="enable-background:new 0 0 2500 1649;" xml:space="preserve">
<style type="text/css">
	.st0{fill:#0E7DC2;}
</style>
<path class="st0" d="M1187.54,1469.83c-494.01,45.57-1008.91-26.21-1081.03-412.28c-35.28-190.32,51.54-392.14,166.55-517.58v-66.98
	C65.87,654.7-46.41,884.62,18.26,1156.22c82.61,348.36,524.41,545.63,1198.93,480.12c266.99-25.87,616.16-111.72,859.07-245.15
	v-189.4C1855.81,1333.15,1491.25,1441.66,1187.54,1469.83L1187.54,1469.83z M2488.92,468.47
	c-117.18-572.09-1227.97-608.36-1944.01-172.5v48.14c715.22-367.7,1729.72-365.47,1822.08,161.54
	c31,174.33-67.21,355.95-242.64,460.53v136.74C2335.39,1025.51,2551.86,775.14,2488.92,468.47L2488.92,468.47z"/>
<path class="st0" d="M2036.33,385.16H1906.8v576.88c0,67.61,32.68,126.4,129.53,135.79V385.16z M494.05,595.79H364.29l-0.07,376.9
	c0,67.84,32.79,126.58,129.83,135.79L494.05,595.79L494.05,595.79z M364.29,402.71h129.36v122.78H364.29V402.71z M1269.76,1102.51
	c-104.84,0-149.21-72.87-149.21-144.65V457.43h128.4v138.36h96.7V699.5h-96.7v250.43c0,29.27,13.9,45.57,44.41,45.57h52.28v107.01
	L1269.76,1102.51 M1506.02,889.31c0,65.71,41.09,114,113.79,114c56.97,0,85.05-15.81,117.93-48.29l79.34,75.58
	c-50.87,50.25-104.16,80.81-198.22,80.81c-122.88,0-240.61-67.06-240.61-262.58c0-167.15,102.87-261.63,237.76-261.63
	c137.12,0,215.92,110.61,215.92,255.8v46.32h-325.91 M1610.39,693.39c-43.95,0-77.72,22.64-92.03,53.17
	c-8.33,18.35-11.39,32.65-12.34,55.2h197.88C1701.4,746.56,1676.37,693.39,1610.39,693.39z M842.78,699.5
	c37.65,0,53.3,18.61,53.3,48.83v354.94h128.43V747.58c0-72.07-38.4-151.65-151.18-151.65l-265.29-0.14v507.47h128.48V699.5
	L842.78,699.5L842.78,699.5z M2175.69,488.24c-28.55,0-51.34-23.03-51.34-51.54c0-28.38,22.79-51.54,51.34-51.54
	c28.41,0,51.74,23.16,51.74,51.54C2227.43,465.22,2204.1,488.24,2175.69,488.24L2175.69,488.24z M2175.69,393.76
	c-23.53,0-42.46,19.45-42.46,42.94c0,23.63,18.93,42.74,42.46,42.74c23.53,0,43.06-19.11,43.06-42.74
	C2218.75,413.2,2199.22,393.76,2175.69,393.76z M2198.54,467.59h-9.63c-0.85-0.01-1.61-0.51-1.96-1.29l-13.03-22.14
	c-0.41-0.47-1.49-1.01-1.83-1.01h-5.97v22.07c0,1.09-0.75,2.37-2.17,2.37h-8.69c-1.29,0-2.17-1.29-2.17-2.37v-55.68
	c0-3.26,1.08-4.6,3.93-5c3.12-0.34,11.26-0.75,15.81-0.75c16.07,0,25.5,4.73,25.5,19.63v1.09c0,9.2-4.54,14.22-11.6,16.46
	l13.56,23.09c0.22,0.52,0.34,1.07,0.34,1.63C2200.64,466.57,2200.17,467.59,2198.54,467.59L2198.54,467.59z M2186.07,423.43
	c0-6.22-3.87-8.19-12.15-8.19h-8.2v17.66c1.29,0,7.12,0.27,8.2,0.27c8.28,0,12.15-2.76,12.15-8.66V423.43z"/>
</svg>
