<?xml version="1.0" encoding="UTF-8"?><svg id="a" xmlns="http://www.w3.org/2000/svg" viewBox="0 0 134.76 47.73"><defs><style>.b{fill:#fff;}.c{fill:#13141a;}.d{fill:#dc1320;}</style></defs><rect class="b" x="0" y="0" width="134.76" height="47.73"/><g><rect class="d" x="6.92" y="6.92" width="33.89" height="33.89"/><g><path class="b" d="M23.87,13.87c-2.76,0-5,2.24-5,5s2.24,5,5,5V13.87Z"/><path class="b" d="M13.87,23.87c0,2.76,2.24,5,5,5,2.76,0,5-2.24,5-5H13.87Z"/><path class="b" d="M23.87,33.87c2.76,0,5-2.24,5-5,0-2.76-2.24-5-5-5v10Z"/><path class="b" d="M33.87,23.87c0-2.76-2.24-5-5-5-2.76,0-5,2.24-5,5h10Z"/></g></g><path class="c" d="M47.71,28.24l3.53-2.05c.6,1.43,1.66,2.15,3.19,2.15,1.27,0,1.89-.37,1.89-1.08,0-.48-.37-.85-1.08-1.15-.3-.12-.99-.32-2.03-.62-2.96-.85-4.8-2.29-4.8-5.06,0-1.5,.53-2.7,1.59-3.62,1.08-.92,2.42-1.39,4.02-1.39,2.7,0,4.89,1.29,6,3.69l-3.46,2.03c-.51-1.2-1.34-1.8-2.52-1.8-.99,0-1.5,.44-1.5,1.06,0,.72,.58,1.11,2.77,1.75,.78,.23,1.41,.44,1.89,.65,.48,.21,.99,.48,1.57,.88,1.13,.74,1.69,1.94,1.69,3.53s-.55,2.82-1.69,3.72-2.61,1.34-4.46,1.34c-3.42,0-5.7-1.55-6.6-4.02Z"/><path class="c" d="M72.29,21.8c1.04,1.15,1.57,2.61,1.57,4.34s-.53,3.19-1.57,4.36c-1.04,1.15-2.31,1.73-3.86,1.73-1.41,0-2.49-.46-3.28-1.39v5.68h-3.83V20.37h3.83v1.06c.79-.92,1.87-1.39,3.28-1.39,1.55,0,2.82,.58,3.86,1.75Zm-4.71,6.86c.72,0,1.32-.23,1.75-.69s.67-1.06,.67-1.82-.23-1.36-.67-1.82c-.44-.46-1.04-.69-1.75-.69s-1.32,.23-1.75,.69c-.44,.46-.67,1.06-.67,1.82s.23,1.36,.67,1.82c.44,.46,1.04,.69,1.75,.69Z"/><path class="c" d="M83.45,20.14h3.83v11.54h-3.83v-1.06c-.79,.92-1.87,1.39-3.28,1.39-1.55,0-2.84-.58-3.88-1.73-1.04-1.18-1.55-2.63-1.55-4.36s.51-3.19,1.55-4.34c1.04-1.18,2.33-1.75,3.88-1.75,1.41,0,2.49,.46,3.28,1.39v-1.06Zm-2.42,8.29c.72,0,1.32-.23,1.75-.69,.44-.46,.67-1.06,.67-1.82s-.23-1.36-.67-1.82c-.44-.46-1.04-.69-1.75-.69s-1.32,.23-1.75,.69c-.44,.46-.67,1.06-.67,1.82s.23,1.36,.67,1.82,1.04,.69,1.75,.69Z"/><path class="c" d="M92.27,22.29c.44-1.5,1.87-2.38,3.46-2.38v4.25c-.88-.14-1.69,.02-2.4,.48-.72,.46-1.06,1.22-1.06,2.26v4.78h-3.83v-11.54h3.83v2.15Z"/><path class="c" d="M108.84,31.69h-4.34l-2.01-2.84-2.01,2.84h-4.32l4.18-5.89-4.02-5.66h4.32l1.85,2.61,1.85-2.61h4.34l-4.02,5.66,4.18,5.89Z"/><path class="c" d="M110.42,15.53h4.13V31.69h-4.13V15.53Z"/><path class="c" d="M127.84,15.53v3.99h-3.99v12.17h-4.13v-12.17h-3.99v-3.99h12.12Z"/></svg>