<?xml version="1.0" encoding="utf-8"?>
<!-- Generator: Adobe Illustrator 23.0.3, SVG Export Plug-In . SVG Version: 6.00 Build 0)  -->
<svg version="1.1" id="Layer_1" xmlns="http://www.w3.org/2000/svg" xmlns:xlink="http://www.w3.org/1999/xlink" x="0px" y="0px"
	 viewBox="0 0 85 57.13" style="enable-background:new 0 0 85 57.13;" xml:space="preserve">
<style type="text/css">
	.st0{clip-path:url(#SVGID_2_);}
	.st1{clip-path:url(#SVGID_4_);}
</style>
<g id="Vector_Smart_Object_1_">
	<g>
		<defs>
			<rect id="SVGID_1_" x="0" y="0" width="85" height="57.13"/>
		</defs>
		<clipPath id="SVGID_2_">
			<use xlink:href="#SVGID_1_"  style="overflow:visible;"/>
		</clipPath>
		<g class="st0">
			<defs>
				<rect id="SVGID_3_" x="0" width="85" height="57.13"/>
			</defs>
			<clipPath id="SVGID_4_">
				<use xlink:href="#SVGID_3_"  style="overflow:visible;"/>
			</clipPath>
			<path class="st1" d="M0,56.82l2.08-7.07h3.58l0.9,3.02l2.6-3.04h3.8l-1.98,7.08l-2.87,0.01l1.05-3.65l-3.33,3.65H4.42l-1.03-3.9
				l-1.15,3.9H0z M25.28,49.74l8.82,0.01l-0.53,2.28h-3.03l-1.24,4.78l-2.79,0l1.16-4.77h-2.98L25.28,49.74z M48.93,49.75v1.64h0.01
				l-0.34,1.36h3.02c0,0,0.74-0.13,0.78-0.8c0.04-0.59-0.52-0.55-0.52-0.55l-2.94-0.01L48.93,49.75h4.55c0,0,1.95,0.15,1.76,1.84
				c-0.2,1.69-1.99,2.22-1.99,2.22s-0.11,0.11-0.02,0.17c0.09,0.06,0.75,0.19,0.84,0.82c0.09,0.63-0.22,1.09-0.22,1.28
				c0,0.19,0.02,0.57,0.26,0.74h-2.88c0,0-0.51-0.08-0.47-0.61c0.04-0.52,0.07-0.99,0.07-0.99s-0.04-0.55-0.81-0.48l-2.1-0.02
				l-0.6,2.1h-2.64l2.01-7.07H48.93z M68.91,49.75h2.7l-1.31,5.13h4.44l-0.52,1.95h-7.16L68.91,49.75z M83.38,49.75L85,56.83h-2.81
				l-0.3-1.23l-0.01-0.02h-3.4l-0.01,0.01l-0.82,1.24l-2.38,0.01l4.8-7.08L81,51.83l-1.39,2.06l0.04,0.01h1.8l0.03,0L81,51.83
				l-0.93-2.09H83.38z M19.25,51.32c0.86,0,1.7,0.42,1.84,1.04c0.41,1.97-1.69,2.81-1.45,2.68c-1.2,0.6-3.04,0.41-3.25-0.84
				c-0.21-1.19,0.72-2.36,1.49-2.65C18.4,51.37,18.84,51.29,19.25,51.32l0.01-0.02l0.01-1.83c-0.56,0.01-1.18,0.08-1.67,0.18
				c-2.11,0.41-4.78,2.33-4.32,4.76c0.4,2.06,3.19,3.16,6.31,2.56c2.93-0.56,4.85-2.82,4.44-4.83c-0.4-1.94-2.69-2.67-4.77-2.67
				v1.58L19.25,51.32z M39.75,51.32c0.85,0,1.7,0.42,1.83,1.04c0.42,1.97-1.68,2.81-1.44,2.68c-1.21,0.6-3.04,0.41-3.26-0.84
				c-0.21-1.19,0.71-2.36,1.49-2.65C38.91,51.37,39.35,51.29,39.75,51.32l0-0.02l0.01-1.83c-0.56,0.01-1.12,0.07-1.68,0.18
				c-2.11,0.41-4.78,2.33-4.31,4.76c0.4,2.06,3.19,3.16,6.31,2.56c2.94-0.56,4.86-2.82,4.45-4.83c-0.4-1.94-2.69-2.67-4.77-2.67
				v1.58L39.75,51.32z M62.05,51.3c0.85,0.05,1.69,0.44,1.83,1.06c0.41,1.97-1.69,2.81-1.44,2.68c-1.21,0.6-3.05,0.41-3.26-0.84
				c-0.21-1.19,0.71-2.36,1.49-2.65C61.3,51.33,61.56,51.27,62.05,51.3l0.01-1.83c-0.56,0.01-1.12,0.07-1.68,0.18
				c-2.11,0.41-4.78,2.33-4.31,4.76c0.4,2.06,3.19,3.16,6.31,2.56c2.93-0.56,4.86-2.82,4.44-4.83c-0.4-1.94-2.69-2.67-4.77-2.67
				v1.58L62.05,51.3z M42.53,0c11.92,0,21.32,9.61,21.32,21.31c0,11.77-9.55,21.31-21.32,21.31c-11.77,0-21.31-9.54-21.31-21.31
				S30.76,0,42.53,0 M42.48,25.78L36.52,6l-7.72,25.32h1.45c0,0,0.98-4.4,2.56-7.03c0.86-1.42,2.19-2.59,3.97-2.56
				c1.25,0.02,2.33,0.71,3.69,2.6c0.81,1.14,2.07,4.03,2.07,4.03s1.25-2.89,2.07-4.03c1.35-1.89,2.43-2.58,3.68-2.6
				c1.77-0.03,3.1,1.14,3.97,2.57c1.58,2.63,2.56,7.04,2.56,7.04h1.45L48.53,6l-5.96,19.78l-0.04,0.04L42.48,25.78z"/>
		</g>
	</g>
</g>
</svg>
