<?xml version="1.0" encoding="utf-8"?>
<!-- Generator: Adobe Illustrator 23.0.3, SVG Export Plug-In . SVG Version: 6.00 Build 0)  -->
<svg version="1.1" id="Layer_1" xmlns="http://www.w3.org/2000/svg" xmlns:xlink="http://www.w3.org/1999/xlink" x="0px" y="0px"
	 viewBox="0 0 2426.49 1148.5" style="enable-background:new 0 0 2426.49 1148.5;" xml:space="preserve">
<g>
	<path d="M759.42,417.97c-41.85,0-55.24,48.55-55.24,70.31c-0.01,21.76,1.66,48.55,1.66,48.55v0h115.52v-63.62
		C821.36,443.08,801.27,417.97,759.42,417.97z"/>
	<path d="M1657.74,429.68h-12.74c-23.46,0-50.89,20.09-50.89,56.91v128.89c0,73.67,16.9,94.41,45.34,94.91h23.81
		c28.44-0.51,45.34-21.26,45.34-94.91V486.59C1708.61,449.77,1681.18,429.68,1657.74,429.68z"/>
	<path d="M1671.43,30.87C1509.41,9.5,1283.95-0.5,967,0.02C624.38,0.58,446.51,18.76,284.89,30.87C127.04,42.69,0,155.53,0,307.9
		v231.34v231.32c0,152.39,127.04,265.22,284.89,277.05c161.6,12.11,339.48,30.3,682.11,30.85c316.96,0.51,542.41-9.49,704.43-30.85
		c157.52-20.8,284.88-124.65,284.88-277.05V307.9C1956.31,155.53,1828.94,51.64,1671.43,30.87z M565.22,387.83v511.15H455.86
		L315.23,416.84h-17.86v334.81h51.35v147.32H190.23V749.43h44.65V381.14l-42.42-2.24l-4.45-165.16H368.8l120.54,493.28V387.83
		h-22.32l-4.45-174.09h133.91l4.46,174.09H565.22z M880.47,582.02H719.24v117.18c0,23.44,20.09,43.51,43.53,43.51
		c23.44,0,55.24-31.81,55.24-58.6v-65.26v0h61.94v122.2c0,58.6-53.58,87.04-122.21,87.04s-122.2-46.86-122.2-159.04
		c0-112.15,2.2-194.24,0-249.43c-1.66-41.85,56.92-97.09,125.56-97.09c58.6,0,119.37,48.55,119.37,107.14V582.02z M1177.94,715.94
		c0,80.36-60.28,110.48-118.87,110.48c-58.58,0-119.1-41.85-119.1-83.69V448.09c0-103.78,92.32-128.89,115.76-128.89
		c23.44,0,50.23,1.67,85.38,15.07v-20.09h35.15l0,0h0.01v232.7h-60.26v-66.96c0-28.47-30.14-50.23-53.58-50.23
		c-23.45,0-50.88,20.09-50.88,56.91v157.36c0,73.66,16.89,94.38,45.34,94.91c16.73,0.27,53.32,0.51,53.32-34.66V595.38h67.73V715.94
		z M1464.2,715.94c0,80.36-60.26,110.48-118.85,110.48c-58.6,0-119.11-41.85-119.11-83.69V448.09
		c0-103.78,92.33-128.89,115.77-128.89c23.44,0,50.23,1.67,85.37,15.07v-20.09h35.16v232.7h-60.26v-66.96
		c0-28.47-30.12-50.23-53.58-50.23c-23.44,0-50.87,20.09-50.87,56.91v157.36c0,73.66,16.87,94.38,45.34,94.91
		c16.74,0.27,53.32,0.51,53.32-34.66V595.38h67.72V715.94z M1780.2,742.73c0,41.84-60.52,83.69-119.11,83.69h-19.45v0
		c-58.6,0-119.11-41.85-119.11-83.69V448.1c0-103.78,92.33-128.89,115.77-128.89h26.15c23.44,0,115.77,25.11,115.77,128.89V742.73z"
		/>
	<path d="M2213.29,723.25c-113.06,0-213.74,78.17-213.74,212.64c0,134.43,100.7,212.61,213.74,212.61
		c112.5-0.01,213.2-78.18,213.2-212.61v0C2426.49,801.43,2325.79,723.25,2213.29,723.25z M2213.29,1099.56V1099
		c-84.38,0.56-152.45-65.25-152.45-163.11c0-97.88,68.07-163.13,152.45-163.13c82.12,0,151.86,65.25,151.86,163.13
		C2365.15,1033.75,2295.41,1099.56,2213.29,1099.56z"/>
	<path d="M2308.33,890.3c0-52.31-34.86-69.18-93.93-69.18h-85.5v228.94h48.93v-96.2h0.01v0h23.05l52.89,96.21h57.94l-58.52-100.14
		C2283.61,947.68,2308.33,932.48,2308.33,890.3z M2221.18,915.06h-43.32v-55.12h34.31c18.57,0,43.88,1.7,43.88,25.3
		C2256.04,910.57,2243.12,915.06,2221.18,915.06z"/>
</g>
</svg>
