<svg width="3568" height="869" viewBox="0 0 3568 869" fill="none" xmlns="http://www.w3.org/2000/svg">
<path d="M2926.77 394.18C2926.77 378.44 2924.82 362.94 2920.86 347.72C2904.54 284.96 2859.2 243.92 2802.09 237.09C2752.7 231.19 2713.02 247.46 2685.67 290.29C2684.15 292.67 2683.52 295.9 2679.75 297.22C2678.74 293.31 2677.8 289.57 2676.81 285.84C2674.17 275.87 2672.57 265.61 2668.61 256.02C2665.36 248.16 2660.29 242.07 2651.03 241.95C2634.7 241.74 2618.36 241.61 2602.04 242.1C2591.72 242.41 2584.18 250.23 2583 260.53C2582.7 263.17 2582.83 265.86 2582.83 268.52C2582.82 371.18 2582.82 473.84 2582.83 576.51C2582.83 579.51 2582.72 582.53 2583.08 585.5C2584.26 595.35 2589.62 601.19 2599.4 603.05C2602.97 603.73 2606.68 603.81 2610.33 603.83C2628.66 603.9 2646.99 603.88 2665.33 603.86C2686.63 603.83 2692.67 597.79 2692.68 576.45C2692.7 518.79 2693.44 461.11 2692.37 403.46C2691.85 375.23 2714.33 346.76 2741.64 339.08C2747.74 337.36 2754 336.94 2760.43 337.36C2787.82 339.14 2820.66 366.28 2819.78 402.66C2818.37 460.96 2819.41 519.31 2819.4 577.64C2819.4 582.31 2819.54 586.93 2820.41 591.57C2821.6 597.97 2825.28 601.43 2831.53 602.75C2835.49 603.59 2839.43 603.86 2843.44 603.85C2854.77 603.84 2866.11 603.85 2877.44 603.85C2887.11 603.85 2896.78 604.05 2906.44 603.79C2919.83 603.42 2925.79 597.49 2926.7 584.17C2926.81 582.51 2926.78 580.84 2926.78 579.17C2926.78 517.51 2926.78 455.85 2926.77 394.18Z" fill="#29588E"/>
<path d="M848.35 472.58C842.1 473.81 836.48 476.86 830.72 479.47C761.13 510.98 689.87 537.65 614.82 553.11C582.76 559.71 550.41 563.72 517.59 562.02C500.9 561.16 484.54 558.42 468.76 552.6C435.32 540.25 416.1 516.22 411.12 481.18C407.69 457.04 397.93 435.99 382.88 417.14C367.08 397.36 347.62 381.82 326.15 368.71C285.64 343.96 241.36 328.89 195.41 318.19C154.11 308.58 112.16 303.56 69.94 300.67C60.65 300.03 51.27 299.76 41.98 300.2C28.17 300.85 19.79 307.58 15.58 320.71C12.43 330.54 10.22 340.62 8.70003 350.85C5.72003 370.92 11.79 378.07 32.25 377.31C65.97 376.06 99.5 378.05 132.97 381.94C174.41 386.75 215.14 394.9 254.76 408.11C288.42 419.33 320.57 433.66 348.61 455.9C370.45 473.23 387.78 493.97 395.63 521.34C397.91 529.31 399.24 537.56 400.87 545.71C409.05 586.53 432.64 613.67 472.37 626.65C494.16 633.77 516.63 635.73 539.48 636.07C566.73 635.5 593.83 632.37 620.71 627.27C673.82 617.19 725.33 601.45 776.1 583.15C794.56 576.5 812.9 569.48 831.13 562.21C843.03 557.46 852.54 549.46 856.66 537.02C861.9 521.2 864.85 504.73 866.5 488.18C867.68 476.02 860.34 470.22 848.35 472.58Z" fill="#29588E"/>
<path d="M1352.41 255.88C1353.61 249.49 1350.52 244.69 1344.35 242.81C1341.54 241.95 1338.44 241.71 1335.48 241.71C1309.5 241.62 1283.51 241.85 1257.53 241.56C1246.94 241.44 1240.72 246.6 1237.09 255.87C1236.12 258.34 1235.43 260.93 1234.64 263.47C1218.06 316.49 1201.49 369.51 1184.9 422.52C1182.33 430.73 1179.69 438.92 1177.08 447.13C1176.5 447.19 1175.92 447.26 1175.34 447.32C1173.78 442.96 1172.11 438.63 1170.68 434.23C1155.41 387.08 1140.17 339.91 1124.95 292.74C1121.07 280.71 1117.37 268.62 1113.45 256.61C1110.46 247.46 1104.27 241.83 1094.41 241.77C1068.43 241.59 1042.44 241.46 1016.47 241.89C1004.76 242.08 999.25 250.18 1001.96 261.62C1002.57 264.19 1003.56 266.69 1004.56 269.15C1047.86 375.1 1091.31 480.98 1134.3 587.05C1139.2 599.15 1147 604.13 1159.37 603.9C1169.03 603.72 1178.73 603.34 1188.34 604C1202.86 604.98 1211.13 598.13 1216.5 585.19C1260.28 479.8 1304.3 374.52 1348.18 269.17C1349.96 264.88 1351.56 260.41 1352.41 255.88Z" fill="#29588E"/>
<path d="M865.32 368.28C865.03 354.96 855.98 349.36 841.74 351.36C833.02 352.58 825.06 355.73 817.12 359.24C759.79 384.58 701.18 406.29 640.19 421.11C601.25 430.57 561.92 437.33 521.63 435.89C501.56 435.17 481.84 432.12 463.23 424.06C435.95 412.23 418.83 391.94 412.64 362.7C410.92 354.57 409.91 346.25 407.72 338.26C399.49 308.2 381.02 284.96 357.76 265.14C332.91 243.97 304.55 228.66 274.46 216.43C232.29 199.3 188.36 188.77 143.44 182.12C131.93 180.42 120.44 178.07 108.72 178.45C96.4495 178.86 84.5195 181.2 75.9695 190.76C67.0595 200.71 60.0195 212.16 55.0695 224.6C50.7595 235.42 54.6395 243.46 65.2995 247.97C71.8695 250.75 78.9095 251.21 85.8795 251.54C102.86 252.34 119.76 253.93 136.63 255.98C181.72 261.47 225.92 270.86 268.6 286.59C301.29 298.64 332.2 314.04 358.28 337.76C375.86 353.75 389.389 372.49 395.859 395.64C398.099 403.63 399.3 411.91 400.98 420.05C409.41 460.83 433.279 487.71 473.049 500.51C495.219 507.64 518.049 509.27 537.099 509.63C577.209 508.85 612.7 503.31 647.82 495.24C712.86 480.3 775.559 458.12 837.469 433.54C842.729 431.45 847.8 428.9 852.43 425.57C864.61 416.8 869.909 404.97 868.099 390.06C867.199 382.79 865.47 375.56 865.32 368.28Z" fill="#29588E"/>
<path d="M812.26 614.76C809.68 615.25 807.19 616.38 804.73 617.38C800.1 619.26 795.54 621.29 790.92 623.18C717.38 653.25 642.61 679.1 562.93 687.13C534.67 689.98 506.33 690 478.61 682.15C439.36 671.04 416.07 645.87 410.67 604.88C409.05 592.58 405.28 580.88 399.73 569.75C388.2 546.59 371.18 528.07 351 512.29C317.46 486.08 279.26 469.06 238.98 456.36C175.61 436.38 110.33 428.36 44.2097 425.91C35.5397 425.73 26.8597 425.1 18.2297 426.18C5.58966 427.75 0.579665 433.37 1.01966 446.03C1.39966 457.01 2.21966 467.99 3.08966 478.94C4.04966 490.94 9.02966 496.67 20.7297 500.27C27.8497 502.46 35.1697 502.71 42.4897 502.85C72.1397 503.41 101.74 504.4 131.25 507.9C179.03 513.56 225.85 523.22 271 540.1C298.9 550.53 325.43 563.62 348.85 582.31C370.65 599.71 387.94 620.5 395.74 647.88C398.01 655.86 399.26 664.13 400.91 672.28C409.52 714.9 434.95 742 476.5 754.21C493.86 759.31 511.66 761.61 529.71 762.06C562.52 762.87 594.82 758.55 626.92 752.27C665.53 744.72 703.31 734.07 740.56 721.56C756.87 716.08 771.76 707.56 782.91 694.22C799.66 674.19 812.52 651.56 824.02 628.19C825.86 624.45 828.32 620.03 824.53 616.09C821.04 612.45 816.44 613.96 812.26 614.76Z" fill="#29588E"/>
<path d="M3147.78 252.42C3136.45 252.32 3125.12 252.45 3113.78 252.39C3101.25 252.33 3102.87 253.51 3102.85 240.94C3102.81 215.94 3102.93 190.95 3102.96 165.95C3102.96 162.95 3103.04 159.93 3102.7 156.96C3101.18 143.85 3092.09 136.99 3079.51 141.09C3055.48 148.94 3031.75 157.74 3007.97 166.33C2996.98 170.3 2992.05 177.87 2992.55 190.12C2993.32 208.75 2992.55 227.44 2992.73 246.1C2992.77 250.85 2991.29 252.68 2986.45 252.45C2980.47 252.16 2974.43 252.09 2968.47 252.59C2957.33 253.51 2951.69 259.03 2950.05 270.06C2949.66 272.68 2949.57 275.37 2949.56 278.02C2949.51 293.68 2949.48 309.35 2949.57 325.01C2949.59 328.66 2949.85 332.35 2950.48 335.94C2952.31 346.31 2958.25 351.56 2968.87 352.18C2973.85 352.47 2978.87 352.24 2983.86 352.29C2992.49 352.38 2992.52 352.39 2992.61 361.02C2992.67 366.69 2992.63 372.35 2992.64 378.02C2992.69 445.35 2992.69 512.67 2992.81 580C2992.84 596.94 2999.48 603.64 3016.44 603.79C3036.77 603.98 3057.1 603.82 3077.43 603.84C3095.37 603.86 3103.41 594.92 3103.14 578.35C3102.55 542.7 3102.96 507.03 3102.96 471.36C3102.91 471.36 3102.86 471.36 3102.81 471.36C3102.81 434.7 3102.79 398.03 3102.82 361.37C3102.83 352.35 3102.89 352.32 3112.17 352.29C3125.17 352.25 3138.17 352.47 3151.16 352.2C3162.41 351.96 3169.08 345.71 3170.59 334.65C3170.86 332.68 3170.85 330.66 3170.86 328.66C3170.88 311 3170.96 293.33 3170.85 275.67C3170.76 259.41 3163.93 252.55 3147.78 252.42Z" fill="#29588E"/>
<path d="M422.63 762C410.94 721.15 389.44 686.7 356.99 659.08C334.75 640.15 310.2 624.9 283.89 612.48C215.95 580.42 143.75 564.42 69.5296 556.22C62.5796 555.45 55.5996 554.51 48.6296 554.52C35.4696 554.54 28.3296 562.59 29.2396 575.65C29.3496 577.3 29.7796 578.93 30.0696 580.57C34.8696 607.13 45.4696 631.49 58.7296 654.75C82.9896 697.28 115.44 732.76 153.21 763.6C214.52 813.65 284.03 846.31 361.65 861.7C364.47 862.26 367.45 863.3 370.35 861.66C370.35 860.95 370.56 860.21 370.31 859.67C369.49 857.86 368.57 856.08 367.57 854.35C353.97 830.9 337.89 809.3 319.26 789.6C284.56 752.91 245.57 721.15 205.45 690.67C183.43 673.94 160.47 658.46 139.34 640.56C136.45 638.11 131.11 635.41 133.4 631.44C135.55 627.71 140.63 630.7 144.35 631.74C181.1 642.04 215.76 657.34 248.9 676.1C322.65 717.84 382.35 774.07 425.03 847.71C428.84 854.28 432.44 860.98 436.49 868.26C438.91 865.67 438.4 863.96 438.32 862.42C436.55 828.41 432.03 794.84 422.63 762Z" fill="#29588E"/>
<path d="M147.72 129.98C154.23 133.51 161.39 135.05 168.64 136.33C204.08 142.62 238.97 151 272.65 163.95C303.3 175.73 332.31 190.4 357.04 212.43C375.03 228.46 388.96 247.32 395.64 270.79C397.91 278.76 399.2 287.02 400.84 295.17C409.22 336.84 433.63 363.98 474.25 376.71C495.81 383.47 517.99 384.95 535.25 385.34C569.73 384.87 598.78 381.19 627.55 375.39C693.98 361.98 757.86 340.22 820.94 315.86C825.6 314.06 830.07 311.82 834.12 308.83C843.58 301.85 846.58 293.83 842.9 282.67C840.19 274.48 836.81 266.48 833.28 258.59C826.65 243.75 816.65 238.93 801.06 242.92C796.89 243.99 792.85 245.65 788.83 247.22C780.77 250.37 772.81 253.75 764.73 256.85C696.19 283.17 626.62 305.47 552.79 311.14C526.7 313.14 500.86 311.95 475.64 304.33C438.07 292.97 416.28 267.99 410.77 228.93C409.89 222.69 408.55 216.45 406.68 210.44C398.01 182.48 380.64 160.39 358.67 141.78C318.97 108.15 272.28 88.36 222.66 74.99C210.35 71.67 197.14 72.13 185.68 78.84C170.41 87.78 156.72 99.05 144.18 111.51C137.22 118.43 138.88 125.2 147.72 129.98Z" fill="#29588E"/>
<path d="M303.109 52.72C318.029 60.16 332.449 68.46 345.689 78.66C371.149 98.3 390.699 122.05 397.759 154.35C398.969 159.87 399.809 165.47 400.929 171.01C409.469 213.09 434.299 240.23 475.409 252.71C496.359 259.07 517.789 260.97 540.999 260.64C560.919 261.1 582.109 258.79 603.159 255.42C647.599 248.31 690.939 236.68 733.669 222.69C748.519 217.83 763.399 212.98 778.039 207.52C792.469 202.14 796.039 190.43 787.189 178.51C780.639 169.69 773.489 161.32 766.909 152.53C760.549 144.01 751.829 142.2 742.079 143.08C734.399 143.78 727.209 146.54 719.969 149.02C664.099 168.12 607.389 183.52 548.099 187.23C521.639 188.89 495.499 187.13 470.269 178.3C435.909 166.28 416.119 141.93 411.029 106.02C406.469 73.86 390.919 47.77 367.599 26.08C356.449 15.72 342.699 10.03 327.249 12.88C314.859 15.17 302.779 19.26 290.999 23.84C282.319 27.22 280.989 32.67 286.549 40.19C290.819 45.97 296.779 49.56 303.109 52.72Z" fill="#29588E"/>
<path d="M403.19 54.07C413.13 91.26 434.91 118.06 471.61 131.69C491.56 139.1 512.4 140.99 534.09 141.69C553.1 140.97 572.68 139.42 592.04 135.9C624.85 129.94 656.86 120.96 688.34 110.04C694.35 107.96 700.93 105.6 702.25 98.47C703.61 91.11 697.8 87.13 692.72 83.32C681.52 74.92 669.86 67.22 657.89 59.94C649.07 54.57 639.62 52.48 629.42 51.95C614.23 51.16 599.69 55.15 584.89 57.17C554.74 61.28 524.57 63.24 494.36 58.15C473.36 54.61 453.83 47.52 437.67 32.92C430.15 26.12 424.71 17.83 419.63 9.16001C414.6 0.590007 407.07 -1.88999 398.35 1.41001C393.01 3.42001 391.12 5.96001 393.06 11.38C398.04 25.26 399.41 39.94 403.19 54.07Z" fill="#29588E"/>
<path d="M700.149 775.16C696.699 772.48 692.709 770.92 688.419 769.91C672.479 766.16 656.579 768.07 640.859 770.77C579.029 781.38 524.699 807.83 477.629 849.24C471.429 854.69 465.399 860.35 459.859 867.86C461.829 868.54 462.439 868.96 463.019 868.92C467.329 868.6 471.659 868.36 475.939 867.77C522.169 861.3 567.309 850.45 611.029 833.97C641.909 822.33 671.529 808.08 699.319 790.19C706.919 785.29 707.219 780.66 700.149 775.16Z" fill="#29588E"/>
<path d="M2111.1 276.13C2111.1 236.49 2111.16 196.84 2111.06 157.2C2111.03 144.18 2102.61 134.34 2089.93 134.04C2066.63 133.49 2043.3 133.65 2019.99 134.08C2010.73 134.25 2004.88 140.09 2002.45 149.15C2001.4 153.08 2001.41 157.05 2001.41 161.05C2001.41 198.36 2001.43 235.67 2001.37 272.98C2001.36 276.15 2002.15 279.48 2000.08 283.49C1997.47 280.88 1995.17 278.66 1992.95 276.36C1986.71 269.87 1980.45 263.41 1973.32 257.89C1957.74 245.84 1940.66 236.77 1920.64 236.16C1848.88 233.95 1794.18 263.63 1758.98 326.34C1732.85 372.9 1728.4 423.16 1741.3 474.46C1760.8 552.01 1821.12 602.25 1895.11 609.71C1921.52 612.37 1945.31 606.84 1966.68 590.97C1974.45 585.2 1981.8 578.96 1988.73 572.21C1992.73 568.31 1996.83 564.52 2001.44 560.16C2005.81 570.89 2009.95 580.57 2013.69 590.41C2017.39 600.14 2024.25 604.15 2034.51 603.95C2050.83 603.63 2067.16 603.66 2083.48 603.92C2102.36 604.21 2111.45 598.59 2111.33 575.96C2110.8 476.01 2111.1 376.07 2111.1 276.13ZM1898.19 509.45C1866.64 501.65 1843.09 473.05 1838.93 438.91C1837.1 423.91 1837.27 408.94 1841.66 394.39C1850.83 363.96 1869.2 341.73 1901.08 334.38C1934.25 326.73 1963.04 336.52 1986.12 361.45C2001.87 378.47 2009.6 399.04 2009.68 422.35C2010.52 479.46 1957.55 524.13 1898.19 509.45Z" fill="#29588E"/>
<path d="M3567.44 258.12C3565.96 247.21 3559.18 240.53 3548.11 240.25C3531.46 239.82 3514.79 240.13 3498.12 240.16C3492.15 240.17 3488.03 243.11 3485.59 248.45C3484.49 250.87 3483.41 253.32 3482.53 255.83C3478.16 268.34 3473.86 280.88 3469.01 294.94C3462.58 287.27 3457.28 280.46 3451.47 274.12C3434.39 255.48 3414.12 241.86 3388.82 237.44C3367.17 233.66 3345.61 235.83 3324.42 241.08C3237.72 262.57 3173.08 344.64 3185.58 446.87C3196.44 535.67 3264.22 600.59 3353.09 609.62C3369.47 611.28 3385.7 610.71 3401.17 603.88C3416.91 596.93 3430.68 587.16 3443.01 575.25C3447.76 570.66 3452.51 566.08 3457.68 561.08C3462.66 570.17 3465.24 579.12 3468.62 587.72C3473.74 600.74 3477.75 603.74 3491.69 603.83C3508.69 603.94 3525.69 603.9 3542.69 603.82C3545.67 603.81 3548.7 603.55 3551.6 602.93C3561.04 600.9 3566.07 595.54 3567.35 586.03C3567.88 582.09 3567.96 578.06 3567.96 574.07C3567.99 472.41 3567.99 370.75 3567.97 269.09C3567.96 265.43 3567.93 261.73 3567.44 258.12ZM3348.57 509.67C3319.87 502.68 3301.22 483.58 3292.04 455.58C3284.88 433.73 3284.92 411.71 3292.23 389.87C3313.84 325.3 3384.49 317.06 3426.55 352.96C3448.02 371.28 3458.49 394.99 3458.86 413.51C3458.98 483.22 3403.72 523.11 3348.57 509.67Z" fill="#29588E"/>
<path d="M2537.11 259.07C2536.35 248.29 2529.53 240.7 2518.71 240.34C2501.73 239.77 2484.72 240.14 2467.72 240.16C2461.75 240.17 2457.53 243.09 2455.24 248.5C2452.78 254.32 2450.46 260.21 2448.38 266.18C2445.22 275.25 2442.32 284.41 2438.78 295.16C2432.45 287.57 2427.36 281 2421.79 274.86C2404.56 255.88 2384.14 241.91 2358.46 237.44C2336.47 233.61 2314.6 235.88 2293.1 241.34C2202.75 264.27 2141.6 350.85 2155.55 449.81C2167.9 537.38 2234.84 600.62 2322.68 609.62C2340.47 611.44 2357.89 610.3 2374.41 602.24C2388.96 595.15 2401.76 585.76 2413.34 574.58C2417.83 570.24 2422.32 565.89 2426.73 561.61C2427.92 562.69 2428.59 563.01 2428.79 563.51C2431.99 571.55 2435.17 579.6 2438.28 587.68C2443.29 600.72 2447.4 603.73 2461.3 603.82C2478.3 603.93 2495.3 603.87 2512.3 603.82C2514.95 603.81 2517.65 603.67 2520.25 603.18C2531.01 601.14 2536.5 594.88 2537.14 584.04C2537.32 581.05 2537.25 578.04 2537.25 575.04C2537.26 473.04 2537.26 371.04 2537.26 269.05C2537.26 265.73 2537.35 262.39 2537.11 259.07ZM2364.27 508.69C2314.7 523.1 2268.2 494.48 2258.57 443.76C2257.26 436.84 2256.64 429.93 2256.71 423.71C2256.42 409.09 2259.09 395.82 2264.42 383.06C2281.72 341.69 2323.48 322.43 2366.17 336.16C2403.99 348.32 2429.42 384.65 2428.66 425.45C2427.93 464.54 2402.34 497.62 2364.27 508.69Z" fill="#29588E"/>
<path d="M1475.09 241.17C1382.27 265.56 1323.98 360.62 1344.01 459.51C1365.57 565.95 1473.9 628.91 1575.81 603.97C1607.91 596.11 1635.31 579.34 1659.18 556.75C1666.91 549.43 1668.12 539.45 1661.7 531.64C1650.7 518.27 1639.55 504.96 1627.1 492.9C1617.7 483.79 1611.59 483.35 1601.78 491.84C1585.61 505.83 1566.63 513.23 1546.13 517.24C1522.11 521.93 1498.91 519.46 1477.82 506.25C1459.69 494.89 1448.68 478.56 1445.74 457.07C1449.78 455.42 1453.49 456.13 1457.1 456.12C1522.07 456.06 1587.04 456.04 1652.01 456.09C1660.37 456.1 1668.68 455.58 1676.87 454.02C1688.17 451.86 1693.95 445.7 1695.02 434.56C1696.66 417.59 1696.89 400.55 1694.3 383.71C1678.86 283.11 1573.88 215.21 1475.09 241.17ZM1451 374.34C1454.5 353.25 1487.23 326.17 1512.81 323.01C1545.28 319 1578.16 339.76 1592.75 374.34C1544.93 374.34 1497.99 374.34 1451 374.34Z" fill="#29588E"/>
</svg>
